<?xml version="1.0" encoding="utf-8"?>
<!-- Generator: Adobe Illustrator 22.0.0, SVG Export Plug-In . SVG Version: 6.00 Build 0)  -->
<svg version="1.1" id="Layer_1" xmlns="http://www.w3.org/2000/svg" xmlns:xlink="http://www.w3.org/1999/xlink" x="0px" y="0px"
	 viewBox="0 0 202.6 56.8" style="enable-background:new 0 0 202.6 56.8;" xml:space="preserve">
<style type="text/css">
	.st0{fill:#FFFFFF;}
	.st1{opacity:0.8;fill:#FFFFFF;}
</style>
<title>logo</title>
<path class="st0" d="M26.3,39.8c-7.3-0.2-13.2-6.3-13-13.6c0.2-6.7,5.3-12.2,12-12.8c3.8-0.3,7.6,1,10.3,3.7L45,7.7
	C34.7-2.7,17.8-2.5,7.6,8S-2.5,35.2,7.9,45.5c4.9,4.8,11.5,7.5,18.4,7.6C26.3,53.1,26.3,39.8,26.3,39.8z"/>
<path class="st1" d="M39.8,27.4c-1,5.9-5.7,11.9-12.2,12.3c-0.4,0-1,0-1.3,0v13.4h1.2c14.1-0.5,25.1-12.7,25.7-26.2
	c0.2-6.3,4.6-13.6,13-13.6L66.5,0C40.9,0,40.3,24.3,39.8,27.4z"/>
<path class="st0" d="M92.5,28.7c-3.7,0-6.6-1-8.6-2.9c-2.1-1.9-3.1-4.7-3.1-8.4s1-6.5,3.1-8.4c2-1.9,4.9-2.9,8.5-2.9
	s6.4,0.6,8.4,1.7c1.9,1,3,3,2.9,5.1c0,0.3-0.1,0.6-0.3,0.9c-0.2,0.2-0.6,0.4-0.9,0.3h-2.9c-1,0-1.8-0.6-2.3-1.4
	c-0.8-1.2-2.2-1.8-4.1-1.8c-2,0-3.3,0.5-4.1,1.5c-0.8,1-1.2,2.7-1.2,4.9s0.4,3.9,1.2,4.9c0.8,1,2.2,1.5,4.2,1.5s3.4-0.6,4.2-1.9
	c0.4-0.9,1.3-1.4,2.2-1.5h3c0.3,0,0.6,0.1,0.9,0.4c0.2,0.2,0.4,0.5,0.3,0.9c0.1,2.4-1,4.4-2.9,5.4C99,28.2,96.2,28.7,92.5,28.7z"/>
<path class="st0" d="M109,25.9c-2.1-1.9-3.1-4.7-3.1-8.4s1-6.5,3.1-8.4s5-2.8,8.9-2.8s6.8,0.9,8.8,2.8c2.1,1.9,3.1,4.7,3.1,8.4
	s-1,6.5-3.1,8.4s-5,2.8-8.9,2.8S111,27.8,109,25.9z M114,12.4c-0.8,1.1-1.2,2.8-1.2,5.1s0.4,4.1,1.2,5.1c2.1,2.1,5.5,2.2,7.7,0.1
	c0,0,0,0,0.1-0.1c0.8-1.1,1.2-2.8,1.2-5.1s-0.4-4.1-1.3-5.1C119.6,10.2,116.1,10.2,114,12.4L114,12.4z"/>
<path class="st0" d="M141.9,28.7c-2.6,0.1-5.1-1-6.9-2.9c-1.9-1.9-2.8-4.7-2.8-8.3s1-6.4,2.9-8.3c2.1-2,4.9-3,7.7-2.9
	c1.9,0,3.9,0.4,5.7,1V1.2c0-0.3,0.1-0.6,0.4-0.9c0.2-0.2,0.5-0.4,0.9-0.3h4.4c0.7,0,1.2,0.5,1.2,1.1v0.1v25.9c0,0.3-0.1,0.6-0.4,0.9
	c-0.2,0.2-0.6,0.4-0.9,0.3h-3.8c-0.3,0-0.6-0.1-0.9-0.4c-0.2-0.2-0.3-0.5-0.3-0.9v-0.6C147,28,144.5,28.8,141.9,28.7z M140.4,12.6
	c-0.9,1.5-1.3,3.2-1.1,4.9c-0.1,1.7,0.2,3.4,1.1,4.9c0.7,1,1.9,1.6,3.2,1.5c1.8-0.1,3.5-0.7,5-1.8V11.9c-1.4-0.5-2.8-0.7-4.3-0.8
	C142.8,10.9,141.4,11.5,140.4,12.6z"/>
<path class="st0" d="M162.1,25.9c-2-1.9-3-4.7-3-8.3s1-6.4,3.1-8.3s4.9-2.9,8.5-2.9s6.4,0.9,8.5,2.8c2,1.9,3,4.6,3,8.1v1.1
	c0,0.7-0.5,1.2-1.1,1.2H181h-15c0,1.3,0.5,2.6,1.4,3.5c1.1,0.8,2.5,1.2,3.8,1.1c1.8,0,3-0.4,3.6-1.2c0.6-0.8,1.4-1.2,2.4-1.2h2.9
	c0.7,0,1.2,0.5,1.2,1.1c0,0.1,0,0.1,0,0.2c0,3.8-3.6,5.7-10.8,5.7C166.9,28.7,164.1,27.8,162.1,25.9z M165.9,15.4h9.2
	c-0.1-3.1-1.7-4.7-4.6-4.7S166.1,12.3,165.9,15.4L165.9,15.4z"/>
<path class="st0" d="M200.7,11.7l-3-0.1c-1.8,0-3.5,1-5.1,2.9v12.6c0,0.3-0.1,0.6-0.4,0.9c-0.2,0.2-0.5,0.3-0.9,0.3h-4.4
	c-0.6,0-1.2-0.5-1.2-1.1v-0.1V7.9c0-0.3,0.1-0.6,0.4-0.9c0.2-0.2,0.5-0.4,0.9-0.4h4.4c0.3,0,0.6,0.1,0.9,0.4
	c0.2,0.2,0.4,0.6,0.3,0.9v1.2c1.2-0.9,2.5-1.6,3.9-2.2c1.6-0.5,3.2-0.8,4.9-0.7c0.3,0,0.6,0.1,0.9,0.4c0.2,0.2,0.4,0.5,0.4,0.9v3
	c0,0.3-0.1,0.6-0.4,0.9c-0.2,0.2-0.6,0.4-0.9,0.3L200.7,11.7z"/>
<path class="st1" d="M80.7,38.1c0-3.5,2.9-5.3,8.6-5.3c6,0,9,1.6,9,4.7c0,0.3-0.1,0.5-0.3,0.7c-0.2,0.2-0.5,0.3-0.7,0.3h-2.4
	c-0.8,0-1.5-0.4-2-1c-0.5-0.7-1.6-1-3.2-1c-2.2,0-3.3,0.5-3.3,1.6c0,0.5,0.4,0.9,1.3,1.2c1,0.4,2.1,0.7,3.1,0.9
	c1.2,0.3,2.5,0.6,3.7,1s2.2,1,3.1,1.8s1.3,2,1.3,3.2c0,3.5-3,5.3-9.1,5.3c-6,0-9.1-1.6-9.1-4.7c0-0.6,0.4-1,1-1h2.4
	c0.8,0,1.5,0.4,2,1c0.5,0.7,1.6,1,3.2,1c2.5,0,3.8-0.5,3.8-1.6c0-0.5-0.4-0.9-1.3-1.2c-1-0.4-2-0.7-3.1-0.9c-1.2-0.3-2.5-0.6-3.7-1
	s-2.2-1-3.1-1.8C81.1,40.4,80.7,39.3,80.7,38.1z"/>
<path class="st1" d="M110.7,51.5c-2.6,0.2-5.2-0.7-7.2-2.4c-1.7-1.6-2.6-3.9-2.6-7s0.8-5.4,2.6-7c2-1.7,4.5-2.5,7.1-2.4
	c2.4-0.1,4.8,0.4,7,1.5c1.6,0.8,2.5,2.5,2.4,4.3c0,0.3-0.1,0.5-0.3,0.7c-0.2,0.2-0.5,0.3-0.7,0.3h-2.4c-0.8,0-1.5-0.5-1.9-1.2
	c-0.8-1.1-2.1-1.7-3.4-1.5c-1.3-0.1-2.6,0.3-3.4,1.3c-0.8,1.2-1.1,2.7-1,4.1c-0.1,1.4,0.2,2.9,1,4.1c0.9,0.9,2.2,1.4,3.5,1.3
	c1.4,0.1,2.7-0.4,3.5-1.5c0.4-0.7,1.1-1.1,1.9-1.1h2.4c0.3,0,0.5,0.1,0.7,0.3s0.3,0.5,0.3,0.7c0.1,1.8-0.9,3.5-2.5,4.3
	C115.5,51.2,113.1,51.7,110.7,51.5z"/>
<path class="st1" d="M124.4,49.1c-1.7-1.6-2.6-3.9-2.6-7s0.9-5.4,2.6-7s4.2-2.4,7.4-2.4s5.7,0.8,7.4,2.4c1.7,1.6,2.6,3.9,2.6,7
	s-0.9,5.4-2.6,7c-1.7,1.6-4.2,2.4-7.4,2.4S126.1,50.7,124.4,49.1z M128.6,37.8c-0.8,1.3-1.1,2.8-1,4.3c-0.1,1.5,0.2,3,1,4.3
	c1.7,1.8,4.6,1.8,6.4,0.1c0,0,0,0,0.1-0.1c0.8-1.3,1.1-2.8,1-4.3c0.1-1.5-0.2-3-1-4.3C133.3,36.1,130.4,36.1,128.6,37.8L128.6,37.8z
	"/>
<path class="st1" d="M146.4,49.1c-1.7-1.6-2.6-3.9-2.6-7s0.9-5.4,2.6-7c1.7-1.6,4.2-2.4,7.4-2.4s5.7,0.8,7.4,2.4
	c1.7,1.6,2.6,4,2.6,7s-0.9,5.4-2.6,7c-1.7,1.6-4.2,2.4-7.4,2.4C150.5,51.5,148.1,50.7,146.4,49.1z M150.5,37.8
	c-0.8,1.3-1.1,2.8-1,4.3c-0.1,1.5,0.2,3,1,4.3c1.7,1.8,4.6,1.8,6.4,0.1c0,0,0,0,0.1-0.1c0.8-1.3,1.1-2.8,1-4.3c0.1-1.5-0.2-3-1-4.3
	C155.2,36.1,152.3,36.1,150.5,37.8L150.5,37.8z"/>
<path class="st1" d="M166.7,55.7V34.1c0-0.3,0.1-0.5,0.3-0.7s0.5-0.3,0.7-0.3h3.2c0.3,0,0.5,0.1,0.7,0.3s0.3,0.5,0.3,0.7v0.5
	c1.8-1.2,3.9-1.9,6-1.8c2.2-0.1,4.3,0.9,5.8,2.5s2.3,4,2.3,7s-0.8,5.3-2.4,6.9c-1.7,1.7-4.1,2.5-6.4,2.4c-1.6,0-3.2-0.3-4.8-0.8v5.1
	c0,0.3-0.1,0.5-0.3,0.7s-0.5,0.3-0.7,0.3h-3.7c-0.3,0-0.5-0.1-0.7-0.3C166.8,56.3,166.7,56,166.7,55.7z M172.4,46.9
	c1.1,0.4,2.4,0.6,3.6,0.7c1.2,0.1,2.4-0.4,3.2-1.3c0.7-1.2,1.1-2.7,0.9-4.1c0.1-1.4-0.2-2.8-0.9-4.1c-0.6-0.9-1.6-1.3-2.7-1.3
	c-1.5,0.1-2.9,0.6-4.1,1.5V46.9z"/>
</svg>
