<svg xmlns="http://www.w3.org/2000/svg" viewBox="0 0 559.8 113.62">
  <title>ritter-studios</title>
  <g>
    <g>
      <path d="M30.42,35a12.43,12.43,0,0,0-6-1.41A8.66,8.66,0,0,0,17.09,37c-1.76,2.28-2.63,5.39-2.63,9.32V68.52H.12V22.09H14.46V30.7h.18Q18,21.27,26.88,21.27a9.33,9.33,0,0,1,3.54.54Z" transform="translate(-0.13 0)" fill="#363736"/>
      <path d="M44.7,14.74a8.35,8.35,0,0,1-5.94-2.16A6.92,6.92,0,0,1,36.45,7.3,6.7,6.7,0,0,1,38.76,2,8.64,8.64,0,0,1,44.7,0a8.65,8.65,0,0,1,6,2A6.75,6.75,0,0,1,53,7.3a6.93,6.93,0,0,1-2.29,5.35A8.54,8.54,0,0,1,44.7,14.74Zm7.08,53.78H37.45V22.09H51.78Z" transform="translate(-0.13 0)" fill="#363736"/>
      <path d="M91.91,68q-3.18,1.68-9.57,1.68-15.15,0-15.15-15.74V32.65H59.67V22.09h7.52v-10L81.48,8V22.09H91.91V32.65H81.48V51.43q0,7.24,5.76,7.25a9.77,9.77,0,0,0,4.67-1.31Z" transform="translate(-0.13 0)" fill="#363736"/>
      <path d="M128.05,68q-3.17,1.68-9.57,1.68-15.14,0-15.14-15.74V32.65H95.81V22.09h7.53v-10L117.62,8V22.09h10.43V32.65H117.62V51.43q0,7.24,5.76,7.25a9.77,9.77,0,0,0,4.67-1.31Z" transform="translate(-0.13 0)" fill="#363736"/>
      <path d="M177.48,49.38H147.19q.72,10.13,12.74,10.12a24.87,24.87,0,0,0,13.47-3.63V66.21q-6.43,3.45-16.73,3.45-11.25,0-17.46-6.24T133,46q0-11.56,6.71-18.32A22.32,22.32,0,0,1,156.21,21q10.17,0,15.72,6t5.55,16.37Zm-13.29-8.79q0-10-8.07-10a7.69,7.69,0,0,0-6,2.86,12.92,12.92,0,0,0-3.06,7.12Z" transform="translate(-0.13 0)" fill="#363736"/>
      <path d="M216.3,35a12.38,12.38,0,0,0-6-1.41A8.66,8.66,0,0,0,203,37c-1.76,2.28-2.63,5.39-2.63,9.32V68.52H186V22.09h14.33V30.7h.18q3.4-9.43,12.24-9.43a9.33,9.33,0,0,1,3.54.54Z" transform="translate(-0.13 0)" fill="#363736"/>
    </g>
    <g>
      <path d="M253.4,66.54V55a22.08,22.08,0,0,0,14.21,5.25,16.66,16.66,0,0,0,3.83-.39,9.22,9.22,0,0,0,2.74-1.1,4.77,4.77,0,0,0,1.63-1.66,4.1,4.1,0,0,0,.54-2.07,4.48,4.48,0,0,0-.86-2.7,9.29,9.29,0,0,0-2.36-2.19,24,24,0,0,0-3.54-1.94c-1.37-.63-2.84-1.26-4.43-1.91a22.61,22.61,0,0,1-9-6.15,13.43,13.43,0,0,1-3-8.78,14,14,0,0,1,1.62-6.93,13.79,13.79,0,0,1,4.41-4.77,20,20,0,0,1,6.46-2.75,33,33,0,0,1,7.77-.88,45.83,45.83,0,0,1,7.14.49A27.85,27.85,0,0,1,286.32,18V28.8a17.45,17.45,0,0,0-2.82-1.59,23.15,23.15,0,0,0-3.15-1.13,23.61,23.61,0,0,0-3.22-.66,21.87,21.87,0,0,0-3-.22,16,16,0,0,0-3.6.38,9.16,9.16,0,0,0-2.74,1.06A5.12,5.12,0,0,0,266,28.28a3.83,3.83,0,0,0-.61,2.14,4.07,4.07,0,0,0,.68,2.32A7.75,7.75,0,0,0,268,34.68a21,21,0,0,0,3.06,1.8c1.2.59,2.56,1.19,4.07,1.82a45.73,45.73,0,0,1,5.56,2.75A19.71,19.71,0,0,1,285,44.34a12.77,12.77,0,0,1,2.7,4.19,14.72,14.72,0,0,1,.94,5.49A14.7,14.7,0,0,1,287,61.27,13.23,13.23,0,0,1,282.51,66,19.36,19.36,0,0,1,276,68.63a37.71,37.71,0,0,1-7.87.79A43.58,43.58,0,0,1,260,68.7,24.31,24.31,0,0,1,253.4,66.54Z" transform="translate(-0.13 0)" fill="#363736"/>
      <path d="M333.31,26.39H318.6V68.52H306.94V26.39H292.29V16.92h41Z" transform="translate(-0.13 0)" fill="#363736"/>
      <path d="M382.32,46.18q0,23.24-21.66,23.24-21,0-21-22.7V16.92H351.3V46.86q0,12.53,9.79,12.52,9.62,0,9.61-12.09V16.92h11.62Z" transform="translate(-0.13 0)" fill="#363736"/>
      <path d="M393.55,68.52V16.92h18.28q27.48,0,27.49,25.15,0,12.06-7.51,19.26t-20,7.19Zm11.62-42.13v32.7h5.76c5,0,9-1.51,11.85-4.53s4.3-7.14,4.3-12.34q0-7.38-4.26-11.61t-12-4.22Z" transform="translate(-0.13 0)" fill="#363736"/>
      <path d="M459.5,68.52H447.88V16.92H459.5Z" transform="translate(-0.13 0)" fill="#363736"/>
      <path d="M493,69.42Q482,69.42,475,62.21t-7-18.8q0-12.24,7.09-19.79t18.79-7.56q11,0,17.86,7.23t6.82,19.07q0,12.17-7.07,19.61T493,69.42Zm.5-43.36a11.69,11.69,0,0,0-9.71,4.59q-3.6,4.59-3.6,12.14t3.6,12.13a11.51,11.51,0,0,0,9.43,4.46,11.64,11.64,0,0,0,9.53-4.33q3.52-4.34,3.53-12,0-8-3.42-12.49A11.16,11.16,0,0,0,493.54,26.06Z" transform="translate(-0.13 0)" fill="#363736"/>
      <path d="M524.74,66.54V55A22.08,22.08,0,0,0,539,60.28a16.66,16.66,0,0,0,3.83-.39,9,9,0,0,0,2.74-1.1,4.81,4.81,0,0,0,1.64-1.66,4.1,4.1,0,0,0,.54-2.07,4.49,4.49,0,0,0-.87-2.7,9.13,9.13,0,0,0-2.36-2.19,24,24,0,0,0-3.54-1.94c-1.37-.63-2.84-1.26-4.43-1.91a22.61,22.61,0,0,1-9-6.15,13.43,13.43,0,0,1-3-8.78,14,14,0,0,1,1.62-6.93,13.79,13.79,0,0,1,4.41-4.77A20,20,0,0,1,537,16.94a33.1,33.1,0,0,1,7.77-.88,45.83,45.83,0,0,1,7.14.49A27.85,27.85,0,0,1,557.66,18V28.8a17.45,17.45,0,0,0-2.82-1.59,23.33,23.33,0,0,0-6.37-1.79,21.87,21.87,0,0,0-3-.22,16,16,0,0,0-3.6.38,9,9,0,0,0-2.73,1.06,5.16,5.16,0,0,0-1.73,1.64,3.83,3.83,0,0,0-.61,2.14,4.07,4.07,0,0,0,.68,2.32,7.92,7.92,0,0,0,1.94,1.94,21,21,0,0,0,3.06,1.8c1.2.59,2.56,1.19,4.07,1.82a45.73,45.73,0,0,1,5.56,2.75,19.71,19.71,0,0,1,4.22,3.29,12.77,12.77,0,0,1,2.7,4.19,14.72,14.72,0,0,1,.94,5.49,14.7,14.7,0,0,1-1.64,7.25A13.23,13.23,0,0,1,553.85,66a19.36,19.36,0,0,1-6.53,2.61,37.68,37.68,0,0,1-7.86.79,43.69,43.69,0,0,1-8.08-.72A24.31,24.31,0,0,1,524.74,66.54Z" transform="translate(-0.13 0)" fill="#363736"/>
    </g>
    <g>
      <path d="M263.35,90.32h-3.3l-1.47,6.94c-.05.26-.1.55-.15.85a5.06,5.06,0,0,0-.08.75,1.28,1.28,0,0,0,.29.93,1.2,1.2,0,0,0,.91.29,2.4,2.4,0,0,0,.4,0c.16,0,.32-.08.5-.13l.5-.17.44-.17-.4,1.84a5.73,5.73,0,0,1-1,.32,4.71,4.71,0,0,1-1.08.14,3.72,3.72,0,0,1-1.24-.19,2.12,2.12,0,0,1-.84-.53,2.16,2.16,0,0,1-.47-.84,3.7,3.7,0,0,1-.15-1.1,7.4,7.4,0,0,1,.07-.86,8.94,8.94,0,0,1,.18-.9l1.5-7.12h-2.17l.4-1.78h2.14l.68-3.19.39-.12.74-.22.74-.22.38-.12-.8,3.87h3.29Z" transform="translate(-0.13 0)" fill="#363736"/>
      <path d="M274.87,97.91c-.08.33-.15.68-.21,1s-.13.71-.19,1-.11.64-.15.93-.08.53-.1.72h-2.05c.05-.33.1-.68.15-1l.16-1c.06-.35.12-.7.17-1h0a11.65,11.65,0,0,1-1,1.32,8,8,0,0,1-1.18,1.08,5.69,5.69,0,0,1-1.34.74,4.13,4.13,0,0,1-1.48.27,3.71,3.71,0,0,1-1.47-.27,2.76,2.76,0,0,1-1.06-.73,3,3,0,0,1-.63-1.14,4.85,4.85,0,0,1-.21-1.48,4.33,4.33,0,0,1,.05-.5c0-.22.07-.46.12-.71s.09-.51.14-.76.1-.47.14-.65l1.52-7.17h2.12l-1.62,7.67c0,.14-.07.29-.11.47l-.09.54c0,.18-.06.34-.07.49a2.88,2.88,0,0,0,0,.35,2.35,2.35,0,0,0,.47,1.53,1.7,1.7,0,0,0,1.4.57,3,3,0,0,0,1.12-.23,5.17,5.17,0,0,0,1.09-.62,6.59,6.59,0,0,0,1-.91,8.27,8.27,0,0,0,.85-1.1,7.32,7.32,0,0,0,.66-1.19,6.78,6.78,0,0,0,.39-1.18l1.37-6.39h2.11Z" transform="translate(-0.13 0)" fill="#363736"/>
      <path d="M287.38,90.77h-.05a3.57,3.57,0,0,0-.67-.3,2.35,2.35,0,0,0-2.25.33,5.28,5.28,0,0,0-1.23,1.26,9.59,9.59,0,0,0-1,1.8,11.53,11.53,0,0,0-.64,2.07l-1.23,5.7h-2.1l1.84-8.69c.08-.36.16-.73.23-1.13s.15-.78.21-1.17.13-.77.18-1.13.09-.68.11-1h2.07q0,.39-.09.81c0,.29-.07.57-.1.84s-.07.51-.1.72-.06.39-.08.51h.05a13.13,13.13,0,0,1,.83-1.32,6.26,6.26,0,0,1,.89-1,3.85,3.85,0,0,1,1-.65,2.87,2.87,0,0,1,1.14-.23,4.27,4.27,0,0,1,.71.07l.63.15Z" transform="translate(-0.13 0)" fill="#363736"/>
      <path d="M300.27,91.81a4,4,0,0,1,0,.53c0,.22-.07.46-.12.71s-.09.51-.14.76-.09.47-.13.65l-1.52,7.17H296.2L297.79,94a3.8,3.8,0,0,0,.1-.47A5.07,5.07,0,0,0,298,93c0-.18,0-.34.07-.49a2.51,2.51,0,0,0,0-.35,2.31,2.31,0,0,0-.46-1.53,1.7,1.7,0,0,0-1.39-.57,3.23,3.23,0,0,0-1.67.5A6.81,6.81,0,0,0,293,91.78a8.7,8.7,0,0,0-1.2,1.68,6.51,6.51,0,0,0-.69,1.78l-1.36,6.39h-2.13l2-9.34c.07-.33.14-.68.21-1s.13-.72.19-1,.11-.65.15-.94.08-.53.1-.72h2.05c0,.34-.09.68-.15,1l-.16,1c-.05.36-.1.71-.16,1h.05a11.76,11.76,0,0,1,1-1.33,7.42,7.42,0,0,1,1.17-1.08,5.75,5.75,0,0,1,1.35-.74,4.09,4.09,0,0,1,1.48-.27,3.79,3.79,0,0,1,1.5.27,2.8,2.8,0,0,1,1,.73,3,3,0,0,1,.61,1.14A5.13,5.13,0,0,1,300.27,91.81Z" transform="translate(-0.13 0)" fill="#363736"/>
      <path d="M306.93,101.58a6,6,0,0,1-.72.16,5.52,5.52,0,0,1-.8.07,2.6,2.6,0,0,1-1.93-.65,2.34,2.34,0,0,1-.64-1.73,5.6,5.6,0,0,1,.06-.75c.05-.29.11-.65.21-1.08l1.9-9.06h2.12l-1.91,9.11c-.08.36-.13.64-.16.83a3.64,3.64,0,0,0-.05.5,1.06,1.06,0,0,0,.29.8,1.3,1.3,0,0,0,.91.28,4.66,4.66,0,0,0,.58,0,3.23,3.23,0,0,0,.47-.12Zm1.49-17.7a1.37,1.37,0,0,1-.39,1,1.25,1.25,0,0,1-1,.41,1.35,1.35,0,0,1-1-.4,1.31,1.31,0,0,1-.41-1,1.22,1.22,0,0,1,.41-1,1.41,1.41,0,0,1,1-.37,1.37,1.37,0,0,1,1,.38A1.27,1.27,0,0,1,308.42,83.88Z" transform="translate(-0.13 0)" fill="#363736"/>
      <path d="M321.75,91.81c0,.13,0,.31,0,.53s-.07.46-.12.71-.09.51-.14.76-.09.47-.14.65l-1.52,7.17h-2.12l1.6-7.67c0-.13.07-.29.1-.47a5.07,5.07,0,0,0,.09-.54c0-.18.05-.34.07-.49s0-.27,0-.35a2.31,2.31,0,0,0-.46-1.53A1.71,1.71,0,0,0,317.7,90a3.23,3.23,0,0,0-1.67.5,6.81,6.81,0,0,0-1.54,1.27,8.29,8.29,0,0,0-1.2,1.68,6.51,6.51,0,0,0-.69,1.78l-1.37,6.39h-2.12l2-9.34c.07-.33.14-.68.21-1s.13-.72.19-1,.11-.65.15-.94.08-.53.1-.72h2.05c-.05.34-.1.68-.16,1s-.11.7-.15,1-.11.71-.17,1h.06a9.76,9.76,0,0,1,1-1.33,7.42,7.42,0,0,1,1.17-1.08,5.69,5.69,0,0,1,1.34-.74,4.18,4.18,0,0,1,1.49-.27,3.79,3.79,0,0,1,1.5.27,2.88,2.88,0,0,1,1,.73,3,3,0,0,1,.61,1.14A5.13,5.13,0,0,1,321.75,91.81Z" transform="translate(-0.13 0)" fill="#363736"/>
      <path d="M334,100.68a16.18,16.18,0,0,1-.84,2.83,7.3,7.3,0,0,1-1.39,2.25,5.82,5.82,0,0,1-2.13,1.48,7.82,7.82,0,0,1-3.07.53,7.38,7.38,0,0,1-2.18-.29,10.58,10.58,0,0,1-1.7-.7l.4-2a10.35,10.35,0,0,0,1.71.82,5.72,5.72,0,0,0,2,.33,5.35,5.35,0,0,0,2-.33,4,4,0,0,0,1.45-1,5.21,5.21,0,0,0,1-1.58,11.13,11.13,0,0,0,.67-2.13l.45-2h-.05a12.33,12.33,0,0,1-.95,1.34,5.45,5.45,0,0,1-1,1,3.79,3.79,0,0,1-1.07.56A4.08,4.08,0,0,1,328,102a3.94,3.94,0,0,1-1.6-.32,3.14,3.14,0,0,1-1.22-.92,4.55,4.55,0,0,1-.78-1.54,7.53,7.53,0,0,1-.27-2.12,9.77,9.77,0,0,1,.25-2.23,9.22,9.22,0,0,1,.72-2.09,8.51,8.51,0,0,1,1.16-1.8,7.51,7.51,0,0,1,1.55-1.43,7.39,7.39,0,0,1,1.91-.94,7.29,7.29,0,0,1,2.23-.34,18.87,18.87,0,0,1,2.37.16c.8.1,1.52.22,2.19.34Zm.1-10.41a9.41,9.41,0,0,0-1.05-.18,10.89,10.89,0,0,0-1.32-.08,4.44,4.44,0,0,0-2.2.56,5.49,5.49,0,0,0-1.72,1.51,7.3,7.3,0,0,0-1.12,2.21,8.77,8.77,0,0,0-.41,2.67,6.4,6.4,0,0,0,.12,1.28,3.18,3.18,0,0,0,.39,1,2,2,0,0,0,.68.67,2,2,0,0,0,1,.24,2.86,2.86,0,0,0,1.3-.3,4.08,4.08,0,0,0,1.09-.77,6.47,6.47,0,0,0,.89-1.11,11.19,11.19,0,0,0,.69-1.27,10.36,10.36,0,0,0,.5-1.29,10.18,10.18,0,0,0,.32-1.14Z" transform="translate(-0.13 0)" fill="#363736"/>
      <path d="M356,97.6c-.06.28-.12.6-.17,1s-.11.77-.15,1.15-.08.76-.11,1.1,0,.6,0,.79h-2.18a4.68,4.68,0,0,1,0-.58c0-.25,0-.5.07-.76s.07-.52.1-.76.06-.44.09-.6h-.05a14,14,0,0,1-.92,1.31,5.41,5.41,0,0,1-1,1,4.06,4.06,0,0,1-1.09.57,4.16,4.16,0,0,1-1.26.19,3.92,3.92,0,0,1-1.61-.32,3.32,3.32,0,0,1-1.23-.94,4.45,4.45,0,0,1-.77-1.54,7.33,7.33,0,0,1-.27-2.1,10.56,10.56,0,0,1,.81-4,9.36,9.36,0,0,1,1.06-1.87,7.39,7.39,0,0,1,1.52-1.54,7.32,7.32,0,0,1,2-1.06,7.78,7.78,0,0,1,2.54-.39,9.11,9.11,0,0,1,1.33.1c.41.06.76.13,1.06.2l1.33-6.26h2.07Zm-.55-7.28a7.64,7.64,0,0,0-1-.22,6.72,6.72,0,0,0-1.13-.09,5.19,5.19,0,0,0-2,.35,4.86,4.86,0,0,0-1.48.92,5.35,5.35,0,0,0-1.06,1.31,7.76,7.76,0,0,0-.69,1.5,8.1,8.1,0,0,0-.37,1.53,9.64,9.64,0,0,0-.11,1.34,6.57,6.57,0,0,0,.12,1.31,2.78,2.78,0,0,0,.4,1,1.93,1.93,0,0,0,.71.65,2.25,2.25,0,0,0,1,.23,2.71,2.71,0,0,0,1.2-.27,4,4,0,0,0,1-.73A5.77,5.77,0,0,0,353,98.1a8.81,8.81,0,0,0,.72-1.28,12.16,12.16,0,0,0,.54-1.37,12.8,12.8,0,0,0,.36-1.34Z" transform="translate(-0.13 0)" fill="#363736"/>
      <path d="M368.44,90.77h-.05a3.7,3.7,0,0,0-.68-.3,2.37,2.37,0,0,0-.82-.15,2.43,2.43,0,0,0-1.42.48,5.28,5.28,0,0,0-1.23,1.26,9.59,9.59,0,0,0-1,1.8,12.43,12.43,0,0,0-.65,2.07l-1.22,5.7h-2.1l1.84-8.69c.08-.36.15-.73.23-1.13s.15-.78.21-1.17.12-.77.17-1.13.09-.68.12-1h2.07q0,.39-.09.81c0,.29-.07.57-.1.84s-.07.51-.1.72-.06.39-.08.51h.05a13.13,13.13,0,0,1,.83-1.32,6.26,6.26,0,0,1,.89-1,3.85,3.85,0,0,1,1-.65,2.87,2.87,0,0,1,1.14-.23,4.15,4.15,0,0,1,.7.07l.64.15Z" transform="translate(-0.13 0)" fill="#363736"/>
      <path d="M380.2,91.61a3.82,3.82,0,0,1-.46,1.88A3.7,3.7,0,0,1,378.22,95a8.91,8.91,0,0,1-2.79.94,24.27,24.27,0,0,1-4.3.35,2.64,2.64,0,0,0,0,.29v.26a4.26,4.26,0,0,0,.19,1.3,3,3,0,0,0,.59,1.07,2.83,2.83,0,0,0,1,.73,3.79,3.79,0,0,0,1.5.27,6.19,6.19,0,0,0,1.93-.34,8.69,8.69,0,0,0,2-1l-.4,2.06a7.84,7.84,0,0,1-1.67.72,7.34,7.34,0,0,1-2.17.31,5.88,5.88,0,0,1-2.44-.45,4.36,4.36,0,0,1-1.6-1.2,4.66,4.66,0,0,1-.87-1.72,7.63,7.63,0,0,1-.27-2,9.5,9.5,0,0,1,.26-2.22,9,9,0,0,1,.72-2,7.81,7.81,0,0,1,1.12-1.68,7.07,7.07,0,0,1,1.44-1.3,6.39,6.39,0,0,1,1.7-.83,5.92,5.92,0,0,1,1.88-.3,5.41,5.41,0,0,1,1.78.27,3.67,3.67,0,0,1,1.29.74,3.08,3.08,0,0,1,.79,1.08A3.18,3.18,0,0,1,380.2,91.61Zm-2.13.1a1.5,1.5,0,0,0-.59-1.25A2.57,2.57,0,0,0,375.9,90a3.65,3.65,0,0,0-1.51.34,5.21,5.21,0,0,0-1.34.93A5.91,5.91,0,0,0,372,92.7a6.38,6.38,0,0,0-.65,1.79,22.43,22.43,0,0,0,3.1-.19,7.79,7.79,0,0,0,2.08-.54,2.79,2.79,0,0,0,1.18-.88A1.92,1.92,0,0,0,378.07,91.71Z" transform="translate(-0.13 0)" fill="#363736"/>
      <path d="M392.27,97.44c-.07.32-.14.68-.2,1.09s-.12.8-.17,1.2-.08.77-.11,1.11-.05.6-.05.79h-2.17c0-.17,0-.38,0-.62s0-.48.07-.74l.09-.75c0-.25.06-.46.09-.64h-.05c-.26.42-.53.81-.8,1.18a6.11,6.11,0,0,1-.91,1,3.89,3.89,0,0,1-1.11.66,3.74,3.74,0,0,1-1.44.25,4,4,0,0,1-1.57-.31,3.29,3.29,0,0,1-1.22-.91,4.37,4.37,0,0,1-.79-1.52,7.55,7.55,0,0,1-.27-2.13,11,11,0,0,1,.15-1.69,10.47,10.47,0,0,1,.52-1.93,10.18,10.18,0,0,1,1-1.92A7.17,7.17,0,0,1,387,88.67a8.16,8.16,0,0,1,2.83-.45,15.45,15.45,0,0,1,2.11.16c.72.1,1.44.22,2.16.37Zm-.6-7.17a10.29,10.29,0,0,0-1.05-.18,9.23,9.23,0,0,0-1.13-.08,5.19,5.19,0,0,0-2,.35,5.31,5.31,0,0,0-1.47.92A5.59,5.59,0,0,0,385,92.59,9.29,9.29,0,0,0,383.85,97a6.5,6.5,0,0,0,.12,1.31,2.79,2.79,0,0,0,.41,1,1.7,1.7,0,0,0,.7.63,2.12,2.12,0,0,0,1,.23,2.84,2.84,0,0,0,1.2-.26,4.18,4.18,0,0,0,1-.71,6,6,0,0,0,.88-1,8.92,8.92,0,0,0,.72-1.24,11.17,11.17,0,0,0,.54-1.35c.15-.45.27-.89.37-1.32Z" transform="translate(-0.13 0)" fill="#363736"/>
      <path d="M416,91.84a4.33,4.33,0,0,1-.05.5c0,.23-.07.47-.11.73s-.1.51-.14.76-.09.46-.13.63L414,101.63h-2.1l1.6-7.67c0-.14.07-.31.1-.48s.07-.36.1-.53.05-.34.07-.49a2.51,2.51,0,0,0,0-.35,2.42,2.42,0,0,0-.43-1.55,1.61,1.61,0,0,0-1.35-.55,2.55,2.55,0,0,0-1,.23,5.06,5.06,0,0,0-1,.6,7.2,7.2,0,0,0-.94.9,8,8,0,0,0-.83,1.09,8.64,8.64,0,0,0-.65,1.19,5.7,5.7,0,0,0-.39,1.19l-1.37,6.42h-2.12L405.35,94c0-.14.07-.31.1-.48s.07-.36.1-.53.05-.34.07-.49a2.51,2.51,0,0,0,0-.35,2.37,2.37,0,0,0-.44-1.55,1.63,1.63,0,0,0-1.35-.55,2.59,2.59,0,0,0-1,.23,4.52,4.52,0,0,0-1,.61,6.74,6.74,0,0,0-.95.91,9.05,9.05,0,0,0-.83,1.1,7.54,7.54,0,0,0-.64,1.18,6,6,0,0,0-.39,1.2l-1.37,6.39h-2.12l2-9.34c.07-.33.14-.68.2-1s.14-.72.2-1,.11-.65.15-.94.08-.53.1-.72h2.05c-.05.34-.1.68-.16,1s-.11.7-.15,1-.11.71-.17,1h.05a11,11,0,0,1,1-1.37,7.19,7.19,0,0,1,1.14-1.08,5.41,5.41,0,0,1,1.25-.71,3.86,3.86,0,0,1,2.76,0,2.65,2.65,0,0,1,1,.68,2.85,2.85,0,0,1,.59,1.07,4.92,4.92,0,0,1,.24,1.39,13.88,13.88,0,0,1,1-1.34,7.25,7.25,0,0,1,1.16-1.07,5.64,5.64,0,0,1,1.32-.71,4,4,0,0,1,1.47-.27,3.05,3.05,0,0,1,2.46,1A4,4,0,0,1,416,91.84Z" transform="translate(-0.13 0)" fill="#363736"/>
      <path d="M426.6,90.84a6.12,6.12,0,0,0-1.29-.6,4.8,4.8,0,0,0-1.43-.23,2.86,2.86,0,0,0-1.86.55,1.81,1.81,0,0,0-.66,1.46,1.87,1.87,0,0,0,.12.68,2.13,2.13,0,0,0,.36.58,3.54,3.54,0,0,0,.6.53c.24.17.52.35.84.55a6.59,6.59,0,0,1,2.06,1.7,3.31,3.31,0,0,1,.63,2,4.09,4.09,0,0,1-.27,1.45,3.36,3.36,0,0,1-.88,1.25,4.52,4.52,0,0,1-1.55.87A6.88,6.88,0,0,1,421,102c-.25,0-.54,0-.84,0s-.62-.09-.93-.16a7.7,7.7,0,0,1-.89-.25,3.26,3.26,0,0,1-.75-.34l.42-2a4.41,4.41,0,0,0,.63.36,7.79,7.79,0,0,0,.82.32,8.24,8.24,0,0,0,.92.23,5.17,5.17,0,0,0,.95.09,3,3,0,0,0,1.91-.51,1.74,1.74,0,0,0,.64-1.42,2,2,0,0,0-.1-.61,1.72,1.72,0,0,0-.34-.57,4.19,4.19,0,0,0-.64-.57c-.26-.19-.59-.4-1-.64a6.53,6.53,0,0,1-1.93-1.66,3.25,3.25,0,0,1-.62-1.94,3.92,3.92,0,0,1,.3-1.52,3.56,3.56,0,0,1,.87-1.28,4.26,4.26,0,0,1,1.47-.88,5.57,5.57,0,0,1,2-.34,8.17,8.17,0,0,1,1.75.18,6.76,6.76,0,0,1,1.4.46Z" transform="translate(-0.13 0)" fill="#363736"/>
      <path d="M440.18,101.58a5.87,5.87,0,0,1-1.52.23,2.62,2.62,0,0,1-1.93-.65,2.34,2.34,0,0,1-.64-1.73,4.44,4.44,0,0,1,.07-.75c0-.29.11-.65.2-1.08l1.9-9.06h2.12l-1.91,9.11c-.08.36-.13.64-.16.83a3.64,3.64,0,0,0-.05.5,1.06,1.06,0,0,0,.29.8,1.3,1.3,0,0,0,.91.28,4.83,4.83,0,0,0,.59,0,3.09,3.09,0,0,0,.46-.12Zm1.5-17.7a1.41,1.41,0,0,1-.39,1,1.27,1.27,0,0,1-1,.41,1.37,1.37,0,0,1-1-.4,1.35,1.35,0,0,1-.41-1,1.25,1.25,0,0,1,.41-1,1.43,1.43,0,0,1,1-.37,1.34,1.34,0,0,1,1,.38A1.28,1.28,0,0,1,441.68,83.88Z" transform="translate(-0.13 0)" fill="#363736"/>
      <path d="M455,91.81a4,4,0,0,1,0,.53c0,.22-.07.46-.12.71s-.09.51-.14.76-.09.47-.13.65l-1.52,7.17h-2.12L452.52,94c0-.13.07-.29.11-.47s.06-.36.08-.54.05-.34.07-.49a2.51,2.51,0,0,0,0-.35,2.31,2.31,0,0,0-.46-1.53A1.7,1.7,0,0,0,451,90a3.23,3.23,0,0,0-1.67.5,6.81,6.81,0,0,0-1.54,1.27,8.7,8.7,0,0,0-1.2,1.68,6.51,6.51,0,0,0-.69,1.78l-1.36,6.39h-2.12l2-9.34c.07-.33.14-.68.21-1s.13-.72.19-1,.11-.65.15-.94.08-.53.11-.72h2c0,.34-.09.68-.15,1l-.16,1c0,.36-.1.71-.16,1h.05a11.76,11.76,0,0,1,1-1.33,7.42,7.42,0,0,1,1.17-1.08,5.69,5.69,0,0,1,1.34-.74,4.18,4.18,0,0,1,1.49-.27,3.79,3.79,0,0,1,1.5.27,2.8,2.8,0,0,1,1,.73,3,3,0,0,1,.61,1.14A4.8,4.8,0,0,1,455,91.81Z" transform="translate(-0.13 0)" fill="#363736"/>
      <path d="M465.16,90.32h-3.3l-1.47,6.94c-.05.26-.1.55-.15.85a5.06,5.06,0,0,0-.08.75,1.28,1.28,0,0,0,.29.93,1.21,1.21,0,0,0,.91.29,2.28,2.28,0,0,0,.4,0c.16,0,.33-.08.5-.13l.5-.17.44-.17-.39,1.84a6.13,6.13,0,0,1-1,.32,4.71,4.71,0,0,1-1.08.14,3.76,3.76,0,0,1-1.24-.19,2,2,0,0,1-.83-.53,2.06,2.06,0,0,1-.48-.84,4.08,4.08,0,0,1-.14-1.1,5.7,5.7,0,0,1,.07-.86,6.88,6.88,0,0,1,.17-.9l1.51-7.12H457.6l.39-1.78h2.15l.68-3.19a2.33,2.33,0,0,1,.39-.12L462,85l.74-.22.37-.12-.8,3.87h3.3Z" transform="translate(-0.13 0)" fill="#363736"/>
      <path d="M477.83,93.39a10.83,10.83,0,0,1-.49,3.29,8.43,8.43,0,0,1-1.42,2.73,6.68,6.68,0,0,1-2.24,1.85,6.4,6.4,0,0,1-3,.69,5.39,5.39,0,0,1-2-.36,4.22,4.22,0,0,1-1.54-1,4.7,4.7,0,0,1-1-1.62,6.55,6.55,0,0,1-.34-2.15,10.77,10.77,0,0,1,.52-3.37,8.44,8.44,0,0,1,1.46-2.72,6.72,6.72,0,0,1,2.25-1.82,6.3,6.3,0,0,1,2.89-.66,5.37,5.37,0,0,1,2,.36,4.22,4.22,0,0,1,1.54,1,4.59,4.59,0,0,1,1,1.62A6.12,6.12,0,0,1,477.83,93.39Zm-2.14.1a4.76,4.76,0,0,0-.21-1.48,2.93,2.93,0,0,0-.57-1.08,2.5,2.5,0,0,0-.9-.68,2.78,2.78,0,0,0-1.17-.24,3.65,3.65,0,0,0-2,.58,5.15,5.15,0,0,0-1.54,1.51,7.59,7.59,0,0,0-1,2.14,8.71,8.71,0,0,0-.34,2.44,5,5,0,0,0,.2,1.44,3.26,3.26,0,0,0,.56,1.1,2.54,2.54,0,0,0,.89.7,2.92,2.92,0,0,0,1.2.24,3.73,3.73,0,0,0,2-.57,5,5,0,0,0,1.54-1.51,7.75,7.75,0,0,0,1-2.14A9.22,9.22,0,0,0,475.69,93.49Z" transform="translate(-0.13 0)" fill="#363736"/>
    </g>
    <path d="M62.37,74.93,46.86,83.77l-.1,17.86,15.41,9,15.51-8.84L77.78,84ZM74.8,84.38l-12.52,5.7L49.84,84.24l12.52-7.13ZM48.73,85.8l12.6,5.91-.08,16.21-12.6-7.37Zm14.4,22.13.08-16.21L75.89,86l-.08,14.75Z" transform="translate(-0.13 0)" fill="#363736"/>
    <path d="M99.6,74.93,84.09,83.77,84,101.63l15.41,9,15.51-8.84L115,84Zm13.46,22.81L102.15,78.6l11,6.42Zm-.79,2.41H86.58l13-22.25ZM97,78.57l-11.12,19L86,84.87ZM88.41,102h22.31l-11.3,6.44Z" transform="translate(-0.13 0)" fill="#363736"/>
    <path d="M40.47,103.64a.5.5,0,0,0,0-.12s0,0,0,0,0,0,0-.06a.5.5,0,0,0,0-.12l0-.13,0-.11,0,0L26,77.93s0,0,0,0a.39.39,0,0,0-.08-.1.76.76,0,0,0-.09-.09l-.09-.08,0,0-.06,0-.11,0-.13,0-.12,0H25l-.13,0-.11,0h-.06s0,0,0,0l-.1.08a.76.76,0,0,0-.09.09l-.07.09s0,0,0,0L9.71,103s0,0,0,.06l0,.11,0,.12a.69.69,0,0,0,0,.13s0,0,0,.06,0,0,0,0a.5.5,0,0,0,0,.12.79.79,0,0,0,0,.13.54.54,0,0,0,0,.11.09.09,0,0,0,0,.05l.05.06.05.07a1,1,0,0,0,.24.21h0l.07,0,.08,0h0a1.07,1.07,0,0,0,.3.06h29a.86.86,0,0,0,.27,0l.05,0,.08,0,.07,0h0a.9.9,0,0,0,.19-.15h0s0,0,0-.05l.06-.07,0-.06s0,0,0-.06a1.17,1.17,0,0,0,0-.11ZM26.12,81.93l10.89,19L26.12,94.64ZM24.24,94.64l-11.15,6.3L24.24,81.87Zm.94,1.63,10.87,6.26h-22Z" transform="translate(-0.13 0)" fill="#363736"/>
    <path d="M174.07,74.93l-15.51,8.84-.1,17.86,15.41,9,15.51-8.84.1-17.85Zm12.62,9.56-5,3-5-8.84Zm-6.83,3.6H168.09l6-10.19ZM179.17,90l-5.32,9.29L168.22,90Zm-12.77-2.7-5-2.94,10.1-5.76Zm-6-1.32,5,2.94-5.09,8.7Zm6.09,4.83,5.67,9.37H161ZM172.93,102v5.88L162.87,102Zm1.88,5.91V102h10.37Zm.69-7.79,5.63-9.82,5.6,9.82Zm7.08-11.08,5-2.93-.07,11.6Z" transform="translate(-0.13 0)" fill="#363736"/>
    <path d="M145.66,77.33H127.81l-8.93,15.46,8.93,15.46h17.85l8.93-15.46Zm-8.8,26,5,3.09H131.31Zm-.13-11.59-7.3-4.31-.12-8.17h14.88l-.12,8.08Zm-9.19-4.39-5,2.91,4.91-8.52ZM146,81.73l4.89,8.45-5-2.88Zm-24.78,11.4L128.42,89l7.38,4.35v8.41l-7.26,4ZM144.8,106l-7.12-4.4V93.32L145,88.93l7.23,4.19Z" transform="translate(-0.13 0)" fill="#363736"/>
  </g>
  <g>
    <g>
      <path d="M499.21,93.12A10.42,10.42,0,0,1,499,95a10.15,10.15,0,0,1-.57,2,10.44,10.44,0,0,1-1,1.89,7.24,7.24,0,0,1-1.48,1.6,7.09,7.09,0,0,1-2,1.1,7.35,7.35,0,0,1-2.56.42,8.56,8.56,0,0,1-1.22-.09,10.09,10.09,0,0,1-1.22-.23,9.67,9.67,0,0,1-1.15-.37,6.22,6.22,0,0,1-1-.5l3.93-18.5h2.13l-1.32,6.26c-.09.42-.19.85-.29,1.31s-.19.87-.29,1.23h0a8.89,8.89,0,0,1,.87-1.17,5.93,5.93,0,0,1,1-.9,4.06,4.06,0,0,1,1.14-.57,4.25,4.25,0,0,1,1.32-.2,3.45,3.45,0,0,1,2.87,1.28A5.73,5.73,0,0,1,499.21,93.12Zm-2.15,0a5.9,5.9,0,0,0-.13-1.32,2.79,2.79,0,0,0-.42-1,1.88,1.88,0,0,0-.74-.63,2.53,2.53,0,0,0-1.08-.22,2.8,2.8,0,0,0-1.55.48,5.45,5.45,0,0,0-1.35,1.25,8.31,8.31,0,0,0-1.06,1.76,9.46,9.46,0,0,0-.66,2l-.85,4.07a4.53,4.53,0,0,0,1.09.41,5.57,5.57,0,0,0,1.36.17,4.42,4.42,0,0,0,1.66-.3,4.6,4.6,0,0,0,1.36-.83,5.5,5.5,0,0,0,1-1.21,8.05,8.05,0,0,0,.75-1.46,9.71,9.71,0,0,0,.44-1.6A9.87,9.87,0,0,0,497.06,93.17Z" transform="translate(-0.13 0)" fill="#68cce2"/>
      <path d="M504.64,103.8a15.05,15.05,0,0,1-1.19,1.69,7.81,7.81,0,0,1-1.26,1.25,4.69,4.69,0,0,1-1.4.77,4.82,4.82,0,0,1-1.64.26,5.42,5.42,0,0,1-.66,0,3.68,3.68,0,0,1-.58-.13l.39-1.85a2.23,2.23,0,0,0,.5.17,3.21,3.21,0,0,0,.6.06,2.76,2.76,0,0,0,1.59-.48,4.94,4.94,0,0,0,1.34-1.49l1.57-2.42-2.38-13h2.18l1.52,10a4.9,4.9,0,0,1,0,.54,3,3,0,0,1,0,.45h.08c0-.1.11-.24.2-.43a4.68,4.68,0,0,1,.3-.54l5.8-10.07h2.31Z" transform="translate(-0.13 0)" fill="#68cce2"/>
      <path d="M521.77,90.32h-3.29L517,97.26c0,.26-.1.55-.15.85a4,4,0,0,0-.08.75,1.28,1.28,0,0,0,.29.93,1.2,1.2,0,0,0,.91.29,2.53,2.53,0,0,0,.4,0c.16,0,.32-.08.49-.13l.51-.17.44-.17-.4,1.84a5.73,5.73,0,0,1-1,.32,4.71,4.71,0,0,1-1.08.14,3.72,3.72,0,0,1-1.24-.19,2.12,2.12,0,0,1-.84-.53,2.16,2.16,0,0,1-.47-.84,3.7,3.7,0,0,1-.15-1.1,7.4,7.4,0,0,1,.07-.86,8.94,8.94,0,0,1,.18-.9l1.5-7.12h-2.17l.4-1.78h2.14l.68-3.19a2.33,2.33,0,0,1,.39-.12l.74-.22.74-.22.38-.12-.81,3.87h3.3Z" transform="translate(-0.13 0)" fill="#68cce2"/>
      <path d="M533.68,91.61a3.82,3.82,0,0,1-.46,1.88A3.7,3.7,0,0,1,531.7,95a8.89,8.89,0,0,1-2.8.94,24.07,24.07,0,0,1-4.29.35,1.37,1.37,0,0,0,0,.29v.26a4.26,4.26,0,0,0,.19,1.3,2.86,2.86,0,0,0,.59,1.07,2.75,2.75,0,0,0,1,.73,3.79,3.79,0,0,0,1.5.27,6.19,6.19,0,0,0,1.93-.34,8.69,8.69,0,0,0,2-1l-.4,2.06a7.84,7.84,0,0,1-1.67.72,7.4,7.4,0,0,1-2.18.31,5.86,5.86,0,0,1-2.43-.45,4.36,4.36,0,0,1-1.6-1.2,4.66,4.66,0,0,1-.87-1.72,7.63,7.63,0,0,1-.27-2,9,9,0,0,1,1-4.2,8.16,8.16,0,0,1,1.11-1.68,7.39,7.39,0,0,1,1.45-1.3,6.39,6.39,0,0,1,1.7-.83,5.92,5.92,0,0,1,1.88-.3,5.41,5.41,0,0,1,1.78.27,3.86,3.86,0,0,1,1.29.74,3,3,0,0,1,.78,1.08A3.19,3.19,0,0,1,533.68,91.61Zm-2.13.1a1.5,1.5,0,0,0-.59-1.25,2.57,2.57,0,0,0-1.58-.45,3.62,3.62,0,0,0-1.51.34,5,5,0,0,0-1.34.93,5.91,5.91,0,0,0-1.06,1.42,6.38,6.38,0,0,0-.65,1.79,22.54,22.54,0,0,0,3.1-.19,7.79,7.79,0,0,0,2.08-.54,2.79,2.79,0,0,0,1.18-.88A1.92,1.92,0,0,0,531.55,91.71Z" transform="translate(-0.13 0)" fill="#68cce2"/>
      <path d="M543.44,90.84a5.9,5.9,0,0,0-1.29-.6,4.7,4.7,0,0,0-1.43-.23,2.86,2.86,0,0,0-1.86.55,1.83,1.83,0,0,0-.65,1.46,1.87,1.87,0,0,0,.12.68,2.13,2.13,0,0,0,.36.58,2.9,2.9,0,0,0,.6.53c.24.17.52.35.83.55a6.64,6.64,0,0,1,2.07,1.7,3.31,3.31,0,0,1,.63,2,3.89,3.89,0,0,1-.28,1.45,3.22,3.22,0,0,1-.87,1.25,4.52,4.52,0,0,1-1.55.87,6.88,6.88,0,0,1-2.32.34c-.26,0-.54,0-.85,0s-.61-.09-.92-.16a8.5,8.5,0,0,1-.9-.25,3.38,3.38,0,0,1-.74-.34l.42-2a4.41,4.41,0,0,0,.63.36,7,7,0,0,0,.82.32,8.24,8.24,0,0,0,.92.23,5.09,5.09,0,0,0,1,.09,3,3,0,0,0,1.91-.51,1.73,1.73,0,0,0,.63-1.42,2,2,0,0,0-.09-.61,1.91,1.91,0,0,0-.34-.57,4.73,4.73,0,0,0-.64-.57c-.26-.19-.6-.4-1-.64a6.35,6.35,0,0,1-1.92-1.66,3.25,3.25,0,0,1-.62-1.94,4.11,4.11,0,0,1,.29-1.52,3.72,3.72,0,0,1,.88-1.28,4.22,4.22,0,0,1,1.46-.88,5.63,5.63,0,0,1,2.06-.34,8.15,8.15,0,0,1,1.74.18,6.56,6.56,0,0,1,1.4.46Z" transform="translate(-0.13 0)" fill="#68cce2"/>
    </g>
    <rect x="228.68" y="3" width="10.7" height="110.62" fill="#68cce2"/>
  </g>
</svg>
