<svg xmlns="http://www.w3.org/2000/svg" viewBox="0 0 498.89 155.43">
  <defs>
    <linearGradient id="a" data-name="TWP Gradient" y1="77.71" x2="498.89" y2="77.71" gradientUnits="userSpaceOnUse">
      <stop offset="0" stop-color="#f15d22"/>
      <stop offset="1" stop-color="#be1c75"/>
    </linearGradient>
  </defs>
  <title>Toledo Web Professionals</title>
  <path d="M355.57,25.2a36.72,36.72,0,0,0-23.3,8.57c-.42-5.16-3.61-8.2-11.24-8.2h-28.9c-8.22,0-11.51,2-13.9,9.93l-18.46,59.3L236.89,25.93H220.63L197.76,94.79,179.1,35.5c-2.37-7.91-5.48-9.93-13.71-9.93H132.58V0H115.2V25.57H102.77V40.83h12.07V84.61c0,31.09,23.59,34.76,35.3,34.76a45.79,45.79,0,0,0,6.21-.36V103.18a20.76,20.76,0,0,1-4.21.38c-6.77,0-19.57-2.4-19.57-21V40.83h24.21c2.94,0,4.76.73,5.67,3.69l24.33,74.13h20.12l21.85-67.19,21.86,67.19h19.92l24.33-74.12c.91-3,2.74-3.69,5.66-3.69H310.6c2.55,0,4,1.29,4,4V155.43h17.74V110.52A36.71,36.71,0,0,0,355.57,119c22.4,0,40.55-21,40.55-46.9S378,25.2,355.57,25.2Zm0,76.09c-12.64,0-24-13.09-24-29.18s11.31-29.18,24-29.18S378.5,56,378.5,72.11,368.22,101.29,355.57,101.29ZM0,62,82.77,25.2V53.07L35.39,72,82.77,90.77v27.88L0,81.81ZM498.89,81.81l-82.77,36.83V90.77L463.5,71.85,416.12,53.08V25.2L498.89,62Z" fill="url(#a)"/>
</svg>
