<svg xmlns="http://www.w3.org/2000/svg" viewBox="0 0 498.89 214.67">
  <title>Toledo Web Professionals</title>
  <path d="M355.57,25.2a36.7,36.7,0,0,0-23.3,8.57c-.42-5.16-3.61-8.2-11.24-8.2H292.12c-8.22,0-11.51,2-13.9,9.93L259.76,94.79,236.89,25.93H220.63L197.76,94.79,179.1,35.5c-2.37-7.91-5.48-9.93-13.71-9.93H132.58V0H115.2V25.57H102.77V40.83h12.07V84.61c0,31.09,23.59,34.77,35.3,34.77a45.89,45.89,0,0,0,6.21-.36V103.18a20.48,20.48,0,0,1-4.2.38c-6.77,0-19.57-2.4-19.57-21V40.83h24.21c2.94,0,4.76.73,5.67,3.69l24.33,74.12h20.12l21.85-67.19,21.86,67.19h19.92l24.33-74.12c.91-3,2.75-3.69,5.67-3.69H310.6c2.55,0,4,1.29,4,4V155.43h17.74V110.52A36.73,36.73,0,0,0,355.57,119c22.4,0,40.55-21,40.55-46.9S378,25.2,355.57,25.2Zm0,76.09c-12.64,0-23.95-13.09-23.95-29.18s11.31-29.19,23.95-29.19S378.5,56,378.5,72.11,368.22,101.29,355.57,101.29ZM0,62,82.77,25.2V53.07L35.39,72,82.77,90.77v27.87L0,81.81ZM498.89,81.81l-82.77,36.83V90.77L463.5,71.85,416.12,53.08V25.2L498.89,62Z" fill="#fff"/>
  <path d="M2.84,187.62H0v-3.36H2.93v-6H7v6h5.21v3.36H7v10c0,4.35,3,4.91,4.61,4.91a5.43,5.43,0,0,0,1-.08v3.7a10.16,10.16,0,0,1-1.46.09c-2.76,0-8.32-.86-8.32-8.14Zm24.21-3.88c6.51,0,11.76,4.78,11.76,11.37a11.41,11.41,0,0,1-11.76,11.46,11.37,11.37,0,0,1-11.71-11.46C15.34,188.52,20.55,183.74,27.05,183.74Zm0,19.22a7.81,7.81,0,1,0-7.45-7.85A7.54,7.54,0,0,0,27.05,203Zm16.5-22.79a.84.84,0,0,0-.94-.95H40.84v-3.57H45c1.94,0,2.75.81,2.75,2.75v23.14a.84.84,0,0,0,1,.94h1.77v3.58H46.31c-1.94,0-2.76-.82-2.76-2.76ZM64,183.74c6.11,0,9.39,4.57,9.39,10.21,0,.56-.13,1.72-.13,1.72H57.39A7.29,7.29,0,0,0,64.88,203a10,10,0,0,0,6.37-2.55l1.81,3a12.77,12.77,0,0,1-8.4,3.18c-6.89,0-11.58-4.95-11.58-11.41C53.08,188.23,57.82,183.74,64,183.74Zm5.08,8.88C69,189,66.69,187.06,64,187.06a6.28,6.28,0,0,0-6.42,5.56Zm17.67-8.88c5,0,6.72,3.36,6.72,3.36h.08a13.33,13.33,0,0,1-.08-1.46v-5.47a.85.85,0,0,0-.95-.95H90.77v-3.57h4.14c1.94,0,2.76.81,2.76,2.75v23.14a.84.84,0,0,0,.94.94h1.77v3.58h-4c-1.89,0-2.67-.87-2.67-2.33,0-.65,0-1.12,0-1.12h-.08a7.71,7.71,0,0,1-7.15,4c-5.9,0-9.61-4.65-9.61-11.41C76.9,188.23,81,183.74,86.77,183.74Zm6.84,11.37c0-3.87-2-7.75-6.2-7.75-3.4,0-6.24,2.84-6.24,7.8,0,4.74,2.54,7.8,6.16,7.8C90.56,203,93.61,200.67,93.61,195.11Zm21-11.37c6.5,0,11.76,4.78,11.76,11.37a11.74,11.74,0,0,1-23.48,0C102.92,188.52,108.13,183.74,114.64,183.74Zm0,19.22a7.81,7.81,0,1,0-7.45-7.85A7.54,7.54,0,0,0,114.64,203Zm27.27-14.26c-.21-.69-.64-.87-1.33-.87H140v-3.57h2.63c1.94,0,2.67.47,3.23,2.33l3.88,13a17.73,17.73,0,0,1,.51,2.33h.09s.26-1.21.61-2.33l4.69-15.2h3.83l4.74,15.2a21.11,21.11,0,0,1,.56,2.33h.09a16.85,16.85,0,0,1,.52-2.33l3.83-13c.56-1.86,1.33-2.33,3.27-2.33H175v3.57h-.61c-.69,0-1.12.18-1.33.87l-5.73,17.36h-4.7l-4.52-14c-.34-1.12-.6-2.37-.6-2.37h-.09s-.26,1.25-.6,2.37l-4.48,14h-4.74Zm45.62-5c6.12,0,9.39,4.57,9.39,10.21,0,.56-.13,1.72-.13,1.72H180.9a7.31,7.31,0,0,0,7.5,7.29,10,10,0,0,0,6.37-2.55l1.81,3a12.77,12.77,0,0,1-8.4,3.18c-6.89,0-11.59-4.95-11.59-11.41C176.59,188.23,181.33,183.74,187.53,183.74Zm5.09,8.88c-.13-3.62-2.41-5.56-5.13-5.56a6.28,6.28,0,0,0-6.42,5.56Zm9.69-12.45a.84.84,0,0,0-.95-.95H199.6v-3.57h4.13c1.94,0,2.76.81,2.76,2.75v7.11a17.54,17.54,0,0,1-.09,1.81h.09a7.83,7.83,0,0,1,7-3.58c5.86,0,9.56,4.65,9.56,11.42,0,6.93-4.17,11.41-9.9,11.41a7.85,7.85,0,0,1-6.85-3.66h-.09a14,14,0,0,1,.09,1.64v1.51h-4ZM212.56,203c3.45,0,6.29-2.84,6.29-7.8,0-4.74-2.54-7.79-6.2-7.79-3.23,0-6.25,2.28-6.25,7.83C206.4,199.12,208.43,203,212.56,203Zm27.36-14.22a.84.84,0,0,0-.94-.95h-1.77v-3.57h3.92c1.94,0,2.67.82,2.67,2.19,0,.65,0,1.17,0,1.17h.08s1.81-3.88,7.24-3.88c5.86,0,9.61,4.65,9.61,11.42,0,6.93-4.22,11.41-9.91,11.41a7.54,7.54,0,0,1-6.68-3.49H244s.08.78.08,1.9v9.69h-4.18ZM250.13,203c3.45,0,6.29-2.84,6.29-7.8,0-4.74-2.54-7.79-6.16-7.79-3.23,0-6.29,2.28-6.29,7.83C244,199.12,246.08,203,250.13,203ZM266,188.78a.85.85,0,0,0-.95-.95h-1.77v-3.57h4c1.89,0,2.8.78,2.8,2.54v1.38a12.22,12.22,0,0,1-.09,1.51H270c1-3.19,3.53-5.69,6.89-5.69a8.09,8.09,0,0,1,1.12.09v4.14a5.74,5.74,0,0,0-1.25-.14c-2.67,0-5.13,1.9-6.12,5.13a13.16,13.16,0,0,0-.52,3.92v8.92H266Zm25.41-5c6.51,0,11.76,4.78,11.76,11.37a11.74,11.74,0,0,1-23.47,0C279.65,188.52,284.86,183.74,291.36,183.74Zm0,19.22a7.81,7.81,0,1,0-7.45-7.85A7.54,7.54,0,0,0,291.36,203Zm17-15.34h-2.71v-3.36h2.71v-.73c0-7.2,5.47-8.1,8.23-8.1a9,9,0,0,1,1.59.13v3.57a6.51,6.51,0,0,0-1.08-.08c-1.64,0-4.56.52-4.56,4.57v.64h5.16v3.36h-5.16v18.44h-4.18Zm21.88-3.88c6.12,0,9.39,4.57,9.39,10.21,0,.56-.13,1.72-.13,1.72H323.59a7.31,7.31,0,0,0,7.5,7.29,10,10,0,0,0,6.37-2.55l1.81,3a12.77,12.77,0,0,1-8.4,3.18c-6.89,0-11.59-4.95-11.59-11.41C319.28,188.23,324,183.74,330.22,183.74Zm5.09,8.88c-.13-3.62-2.42-5.56-5.13-5.56a6.28,6.28,0,0,0-6.42,5.56Zm9.52,7.32a9.23,9.23,0,0,0,6.59,3.23c2,0,3.79-.91,3.79-2.8,0-3.92-11.89-3.49-11.89-10.51,0-4.18,3.66-6.12,8.1-6.12,2.63,0,7.15.91,7.15,4.23V190h-3.75V189c0-1.3-1.94-1.86-3.27-1.86-2.46,0-4.05.87-4.05,2.59,0,4.13,11.89,3.23,11.89,10.51,0,3.87-3.45,6.37-8,6.37a11.23,11.23,0,0,1-8.71-3.83Zm19.56,0a9.23,9.23,0,0,0,6.59,3.23c2,0,3.79-.91,3.79-2.8,0-3.92-11.89-3.49-11.89-10.51,0-4.18,3.66-6.12,8.1-6.12,2.63,0,7.15.91,7.15,4.23V190h-3.75V189c0-1.3-1.94-1.86-3.27-1.86-2.46,0-4.05.87-4.05,2.59,0,4.13,11.89,3.23,11.89,10.51,0,3.87-3.45,6.37-8,6.37a11.2,11.2,0,0,1-8.7-3.83Zm20.12-11.16a.85.85,0,0,0-.95-.95h-1.77v-3.57h4.1c1.94,0,2.75.82,2.75,2.76v14.52a.84.84,0,0,0,.95.94h1.77v3.58h-4.09c-1.94,0-2.76-.82-2.76-2.76Zm.09-13.13h3.74V180H384.6Zm21.15,8.09c6.5,0,11.76,4.78,11.76,11.37a11.74,11.74,0,0,1-23.48,0C394,188.52,399.24,183.74,405.75,183.74Zm0,19.22a7.81,7.81,0,1,0-7.45-7.85A7.54,7.54,0,0,0,405.75,203Zm17-14.18a.85.85,0,0,0-1-.95H420v-3.57h4c1.85,0,2.75.82,2.75,2.41v.82a9.86,9.86,0,0,1-.08,1.25h.08a8.87,8.87,0,0,1,8.19-5c5.16,0,7.49,2.8,7.49,8.36v9.44a.84.84,0,0,0,.95.94h1.76v3.58H441c-1.94,0-2.76-.82-2.76-2.76V193.05c0-3.06-.6-5.47-4.09-5.47a7.06,7.06,0,0,0-6.89,5.34,9,9,0,0,0-.39,2.93v10.21h-4.18Zm38,3.71h.95v-.22c0-3.83-1.42-5.21-4.83-5.21-1,0-3.57.26-3.57,1.68V190h-3.92v-2.16c0-3.57,5.43-4.09,7.54-4.09,7.06,0,9,3.71,9,8.53v9.27a.84.84,0,0,0,.95.94h1.76v3.58h-3.92c-1.94,0-2.71-.95-2.71-2.5a9.27,9.27,0,0,1,.09-1.3H462a7.46,7.46,0,0,1-6.94,4.31c-3.74,0-7.4-2.28-7.4-6.63C447.63,192.92,457.1,192.49,460.76,192.49Zm-4.82,10.72c3.53,0,5.81-3.7,5.81-6.93v-.73h-1.07c-3.15,0-8.83.17-8.83,4.18C451.85,201.49,453.18,203.21,455.94,203.21Zm17.1-23a.84.84,0,0,0-1-.95h-1.76v-3.57h4.13c1.94,0,2.76.81,2.76,2.75v23.14a.84.84,0,0,0,.95.94h1.77v3.58H475.8c-1.94,0-2.76-.82-2.76-2.76Zm11.29,19.77a9.23,9.23,0,0,0,6.59,3.23c2,0,3.79-.91,3.79-2.8,0-3.92-11.89-3.49-11.89-10.51,0-4.18,3.66-6.12,8.1-6.12,2.63,0,7.15.91,7.15,4.23V190h-3.75V189c0-1.3-1.93-1.86-3.27-1.86-2.46,0-4.05.87-4.05,2.59,0,4.13,11.89,3.23,11.89,10.51,0,3.87-3.45,6.37-8,6.37a11.2,11.2,0,0,1-8.7-3.83Z" fill="#fff"/>
</svg>
