<svg xmlns="http://www.w3.org/2000/svg" viewBox="0 0 287.83 258.12">
  <title>wp-toledo-logo-w</title>
  <path d="M204.76,32.67,205,32h-.7a73.63,73.63,0,1,0,.43.64Zm-61-25.27A65.79,65.79,0,0,1,195.1,32H124.85a46.53,46.53,0,0,0-15.15,2.46A54.52,54.52,0,0,0,96.54,41,50.75,50.75,0,0,0,86.2,50.19a41.65,41.65,0,0,0-6.69,10.6c-.33.79-.64,1.57-.93,2.33A66,66,0,0,1,143.72,7.4ZM79.05,86.18Q83.37,91,93.06,91a25,25,0,0,0,8.08-1.4,31.69,31.69,0,0,0,7.85-4,35,35,0,0,0,6.79-6.16,30.93,30.93,0,0,0,4.9-8q2.35-5.58.15-9.41c-1.48-2.56-4.07-3.85-7.78-3.85a19.11,19.11,0,0,0-11,3.85,21.86,21.86,0,0,0-7.84,9.41q-2.36,5.56-.15,9.4t7.78,3.85c.44,0,.63.09.55.26s-1,.67-2.56,1.2a15.92,15.92,0,0,1-5,.79,12.36,12.36,0,0,1-7-1.72,8.86,8.86,0,0,1-3.57-4.71,16,16,0,0,1-.52-6.89A30.09,30.09,0,0,1,86,65.56a49.38,49.38,0,0,1,6.51-10.8,55,55,0,0,1,10.14-10,52.24,52.24,0,0,1,13.1-7.29,42.74,42.74,0,0,1,15.56-2.79h15.64l-46.4,88.44A65.89,65.89,0,0,1,79.05,86.18Zm64.67,53.09a65.8,65.8,0,0,1-21.88-3.74L174.75,34.68h4.64c2.12,0,3.89,1.29,5.32,3.85a29.56,29.56,0,0,1,3.1,9.41,52.55,52.55,0,0,1,.61,11.66,31.52,31.52,0,0,1-2.24,10.6h2.65L201.2,41a65.92,65.92,0,0,1-57.48,98.23Z" transform="translate(1.23)" fill="#fff"/>
  <g>
    <path d="M43.68,161.1l-8.86,60.06h-8.7l-4.94-34.79-4.85,34.79H7.63L-1.23,161.1H6.71l5.69,45,5.69-45h6.27l5.69,45,5.69-45Z" transform="translate(1.23)" fill="#fff"/>
    <path d="M56.73,221.16q-9.7,0-9.7-10.2V171.39q0-10.29,9.62-10.29h7.7q9.62,0,9.61,10.29V211q0,10.2-9.7,10.2Zm1.93-7.27h4.1c2.12,0,3.17-1.18,3.17-3.52V171.89c0-2.34-1.19-3.51-3.59-3.51H58.57q-3.51,0-3.51,3.51v38.48C55.06,212.71,56.26,213.89,58.66,213.89Z" transform="translate(1.23)" fill="#fff"/>
    <path d="M81.07,161.1H96.8q9.2,0,9.2,10.29V186.2q0,7.86-4.77,10l5.61,25H99.23L94,196.9H89.1v24.26h-8Zm8,29h5.28q3.59,0,3.59-4.35v-13q0-4.35-3.59-4.35H89.1Z" transform="translate(1.23)" fill="#fff"/>
    <path d="M112.69,221.16V161.1h14q11.29,0,11.29,11.55v39.81q0,8.7-9.62,8.7Zm8-7.27h6c2.11,0,3.17-.9,3.17-2.68V172.73q0-4.35-3.59-4.35h-5.61Z" transform="translate(1.23)" fill="#fff"/>
    <path d="M145.06,161.1H159.7q9.7,0,9.71,10.29v17.82q0,10.2-9.62,10.2h-6.7v21.75h-8Zm8,31h5.11q3.18,0,3.18-3.52V171.89q0-3.51-3.6-3.51h-4.69Z" transform="translate(1.23)" fill="#fff"/>
    <path d="M175.76,161.1h15.73q9.19,0,9.2,10.29V186.2q0,7.86-4.77,10l5.6,25h-7.61l-5.27-24.26h-4.85v24.26h-8Zm8,29h5.27q3.6,0,3.6-4.35v-13q0-4.35-3.6-4.35h-5.27Z" transform="translate(1.23)" fill="#fff"/>
    <path d="M207.38,221.16V161.1h19.91v7.28H215.41v18.24H226v7.27H215.41v20h11.88v7.27Z" transform="translate(1.23)" fill="#fff"/>
    <path d="M248.45,177.25V172q0-3.6-3.51-3.6h-1.26q-3.44,0-3.43,3.6v10a2.93,2.93,0,0,0,.67,2.26,17.58,17.58,0,0,0,2.18,1.51l7.61,4.09a35.67,35.67,0,0,1,3.55,2.22,5.59,5.59,0,0,1,1.63,1.93,10.53,10.53,0,0,1,.59,4.3V211q0,10.13-9.7,10.12h-4.94q-9.61,0-9.62-11v-3h8v3.26c0,2.34,1.2,3.52,3.6,3.52h1.42c2.12,0,3.18-1.18,3.18-3.52v-10.2a2.93,2.93,0,0,0-.67-2.26,18.1,18.1,0,0,0-2.17-1.51L238,192.14a24.66,24.66,0,0,1-3.64-2.26,5.2,5.2,0,0,1-1.63-2.39,12.06,12.06,0,0,1-.5-3.8v-12.3q0-10.29,9.62-10.29h5q9.62,0,9.62,10.29v5.86Z" transform="translate(1.23)" fill="#fff"/>
    <path d="M278.56,177.25V172q0-3.6-3.51-3.6h-1.26c-2.28,0-3.43,1.2-3.43,3.6v10a3,3,0,0,0,.67,2.26,17.58,17.58,0,0,0,2.18,1.51l7.61,4.09a36.12,36.12,0,0,1,3.56,2.22,5.7,5.7,0,0,1,1.63,1.93,10.57,10.57,0,0,1,.58,4.3V211q0,10.13-9.7,10.12H272q-9.61,0-9.62-11v-3h8v3.26c0,2.34,1.2,3.52,3.6,3.52h1.42c2.12,0,3.18-1.18,3.18-3.52v-10.2a2.93,2.93,0,0,0-.67-2.26,17.3,17.3,0,0,0-2.17-1.51l-7.61-4.26a23.61,23.61,0,0,1-3.64-2.26,5.05,5.05,0,0,1-1.63-2.39,11.74,11.74,0,0,1-.51-3.8v-12.3q0-10.29,9.62-10.29h5q9.61,0,9.62,10.29v5.86Z" transform="translate(1.23)" fill="#fff"/>
    <path d="M70.75,236.32v3.75H64.41v17.46H59.94V240.07H53.57v-3.75Z" transform="translate(1.23)" fill="#fff"/>
    <path d="M101,255.65q-2.42,2.47-7,2.47t-7-2.47c-2.15-2-3.22-4.94-3.22-8.75s1.07-6.81,3.22-8.76q2.4-2.47,7-2.47t7,2.47c2.13,2,3.21,4.87,3.21,8.76S103.09,253.62,101,255.65Zm-2.78-3.23a10.6,10.6,0,0,0,0-11A5,5,0,0,0,94,239.43a5.1,5.1,0,0,0-4.2,1.94,10.51,10.51,0,0,0,0,11,5.11,5.11,0,0,0,4.2,2A5,5,0,0,0,98.18,252.42Z" transform="translate(1.23)" fill="#fff"/>
    <path d="M119.34,236.32h4.43v17.4h10.6v3.81h-15Z" transform="translate(1.23)" fill="#fff"/>
    <path d="M164.83,240.07H153.6v4.51h10.31v3.68H153.6v5.46h11.74v3.81H149.27V236.32h15.56Z" transform="translate(1.23)" fill="#fff"/>
    <path d="M193,236.78a7,7,0,0,1,3.62,2.69,9.44,9.44,0,0,1,1.51,3.42,16.38,16.38,0,0,1,.4,3.52,14.08,14.08,0,0,1-1.69,7.16,7.68,7.68,0,0,1-7.12,4h-9.15V236.32h9.15A11.1,11.1,0,0,1,193,236.78ZM184.89,240v13.85H189a4.42,4.42,0,0,0,4.38-3.1,10.91,10.91,0,0,0,.68-4,10,10,0,0,0-1-5c-.67-1.15-2-1.73-4-1.73Z" transform="translate(1.23)" fill="#fff"/>
    <path d="M230,255.65q-2.4,2.47-6.95,2.47c-3,0-5.35-.82-7-2.47-2.15-2-3.22-4.94-3.22-8.75s1.07-6.81,3.22-8.76c1.61-1.65,3.92-2.47,7-2.47s5.35.82,6.95,2.47q3.21,2.93,3.21,8.76C233.22,250.71,232.15,253.62,230,255.65Zm-2.77-3.23a10.6,10.6,0,0,0,0-11,5.06,5.06,0,0,0-4.18-1.95,5.12,5.12,0,0,0-4.21,1.94,10.51,10.51,0,0,0,0,11,5.13,5.13,0,0,0,4.21,2A5.06,5.06,0,0,0,227.24,252.42Z" transform="translate(1.23)" fill="#fff"/>
  </g>
</svg>
