<svg xmlns="http://www.w3.org/2000/svg" viewBox="0 0 183.15 41.71">
  <title>maritzcx</title>
  <rect x="113.71" width="61.8" height="41.71" rx="4.99" ry="4.99" fill="#8ac757"/>
  <g>
    <path d="M29.66,5.21l.26-.75-4.69,0-.11.26C17.84,22.58,16,27.05,15.26,28.94l-.19.47L5.24,4.71l-.1-.27H0l.29.79c.23.63.47,1.27.46,4.82l0,21A15.94,15.94,0,0,1,.28,35.9L0,36.67H5.68L5.53,36a18.64,18.64,0,0,1-.48-5l0-2.24S4.77,18.47,4.65,13c2.46,6.35,9.2,23.7,9.2,23.7L14,37h1.81l.11-.26S22.83,19.32,25.36,13c-.15,5.19-.46,16.79-.46,16.8-.1,4.24-.15,4.7-.59,6.11l-.24.76,5.8,0-.28-.79c-.23-.63-.47-1.26-.46-4.82l0-21A15.27,15.27,0,0,1,29.66,5.21Z" transform="translate(0)" fill="#53575b"/>
    <path d="M62,13.53a6,6,0,0,0-4.25,2c0-.74-.11-1.56-.11-1.56l0-.6-4.4,2,.16.5c.35,1,.52,1.56.51,8.6v4c0,6.23-.2,6.73-.49,7.52l-.25.76,5.49,0-.35-.78c-.29-.8-.46-1.28-.45-7.51,0,0,0-7.44,0-8.52a5.31,5.31,0,0,1,3.79-2.28,6.87,6.87,0,0,1,2.33.32l.74.22,0-3.83-.3-.18A5.38,5.38,0,0,0,62,13.53Z" transform="translate(0)" fill="#53575b"/>
    <path d="M71.16,28.36l0-15-4.69,2L67,17.23a60.47,60.47,0,0,1,.15,6.35v4.79c0,6.16-.19,6.72-.44,7.49l-.25.81h5.37l-.27-.78C71.33,35.14,71.15,34.6,71.16,28.36Z" transform="translate(0)" fill="#53575b"/>
    <path d="M107,32.61a5.34,5.34,0,0,1-1.59.52,26.56,26.56,0,0,1-4.77.31l-5.56-.1-.58,0,13.35-18.77.47-.65H90.92c-.94,0-1.12.67-1.3,1.34L89,18.14l1-.32c1.4-.45,2.82-.51,7.35-.51h4.39L88.06,36l-.48.66,16.3,0c1.64,0,2.46,0,2.86-1L108.35,32Z" transform="translate(0)" fill="#53575b"/>
    <path d="M83.54,33.82a1.32,1.32,0,0,1-1.39-.73,6.09,6.09,0,0,1-.34-2.56s0-10.65,0-12.91h4.69V13.93H81.84V7.15l-4,2v4.75h-4l0,3.68h4c0,2.3,0,13.24,0,13.24a8.72,8.72,0,0,0,.62,3.84c.78,1.64,2.29,2.47,4.5,2.48h0a8.05,8.05,0,0,0,3.7-.84l.32-.15,0-3.89-.93.65A4,4,0,0,1,83.54,33.82Z" transform="translate(0)" fill="#53575b"/>
    <path d="M50.12,35.73c-.28-.76-.57-1.54-.56-7.26V22.18c0-5.75-2.66-8.55-8.19-8.57a12.35,12.35,0,0,0-6.07,1.89l-.26.18v4.47l.9-.66c1.45-1.18,3-2.28,4.82-2.28a4.91,4.91,0,0,1,3.62,1.13A4.89,4.89,0,0,1,45.51,22v.51H45c-3.82,0-12.76,0-12.77,8.06,0,1.11.36,6.63,7.39,6.64h0a8.23,8.23,0,0,0,6.12-2.77,15.29,15.29,0,0,0,.29,1.83l.1.43h4.46l-.37-.62ZM45.25,25.9h.26V26c0,2.87-.76,7.68-5.71,7.72a3.52,3.52,0,0,1-2.58-.86,3.18,3.18,0,0,1-.8-2.34C36.42,27.35,39.23,25.9,45.25,25.9ZM39.67,36.76Z" transform="translate(0)" fill="#53575b"/>
    <path d="M69.19,8.83h0a2.46,2.46,0,0,0,2.5-2.41A2.43,2.43,0,0,0,69.19,4,2.39,2.39,0,0,0,67.45,8.1,2.48,2.48,0,0,0,69.19,8.83Z" transform="translate(0)" fill="#53575b"/>
  </g>
  <g>
    <path d="M120.28,20.79v-.08A13.08,13.08,0,0,1,133.6,7.35a13.43,13.43,0,0,1,10.11,4l-2.91,3.35a10.31,10.31,0,0,0-7.23-3.21c-4.95,0-8.53,4.06-8.53,9.12v.07c0,5.06,3.58,9.19,8.53,9.19,3.17,0,5.2-1.29,7.41-3.36l2.92,3a13.35,13.35,0,0,1-10.48,4.57A13,13,0,0,1,120.28,20.79Z" transform="translate(0)" fill="#fff"/>
    <path d="M155,20.49,146,7.8h5.35l6.42,9.26,6.45-9.26h5.21l-9,12.62,9.38,13.21h-5.35l-6.79-9.78-6.83,9.78h-5.2Z" transform="translate(0)" fill="#fff"/>
  </g>
  <path d="M179.68,7.7v.45h-.87v2.26h-.54V8.15h-.86V7.7Zm2.93,2.71-.1-1.59c0-.21,0-.47,0-.76h0c-.07.24-.15.56-.23.81l-.49,1.5h-.55l-.49-1.54-.19-.77h0c0,.25,0,.51,0,.76l-.1,1.59h-.52L180,7.7h.81L181.32,9c.06.2.11.4.17.68h0c.07-.25.13-.48.19-.68l.47-1.33h.78l.21,2.71Z" transform="translate(0)" fill="#8ac757"/>
</svg>
