<svg xmlns="http://www.w3.org/2000/svg" viewBox="0 0 962.35 677">
  <title>seed-coworking</title>
  <g>
    <path d="M119.44,649.19c-4.7,0-8.59-2.74-8.59-7.88,0-8.59,10.89-8.59,21.69-8.59C132.54,646.45,124.4,649.19,119.44,649.19Zm-7.53-34.81a28.42,28.42,0,0,1,10.18-1.85c7.18,0,10.45,3.27,10.45,11.87v3.27c-15.32,0-28.95,1.24-28.95,14,0,11.16,8.94,13.11,14.17,13.11,8,0,12.57-3.63,15.32-11h.17a49.08,49.08,0,0,0-.88,8.06v1.86h13.1v-5.58h-6.55c0-8.24.53-20.73.53-24.71,0-12.13-6.28-16.47-18.06-16.47a43,43,0,0,0-16,3.54v11h6.55Z" transform="translate(0 0)" fill="#7c7c6a" fill-rule="evenodd"/>
    <path d="M208.32,646.18c-4.25,1.33-7.88,2.57-12.39,2.57-17,0-17.36-15.41-17.36-17.89,0-7.44,2.65-17.89,15.85-17.89A28.09,28.09,0,0,1,202,614v7.18h6.55v-12A43.86,43.86,0,0,0,193.8,607c-10.18,0-22.85,6.46-22.85,23.91,0,11.95,5.76,23.91,23.83,23.91A46.1,46.1,0,0,0,208,652.56Z" transform="translate(0 0)" fill="#7c7c6a" fill-rule="evenodd"/>
    <path d="M212.24,632.1c0,13.11,8.23,22.67,22.14,22.67s22.14-10.63,22.14-25.15c0-13.11-8.24-22.67-22.14-22.67S212.24,617.57,212.24,632.1Zm7.61-1.24c0-9.92,4.79-17.89,14.53-17.89s14.52,8,14.52,17.89-4.78,17.89-14.52,17.89S219.85,640.78,219.85,630.86Z" transform="translate(0 0)" fill="#7c7c6a" fill-rule="evenodd"/>
    <path d="M255.76,613.59h5.13L276,653.71h7.26l8.33-21a30.51,30.51,0,0,0,1.41-4.78h.18a39.7,39.7,0,0,0,1.24,4.78l7.17,21h7.62l15.32-40.12h5.23V608H311.55v5.58h6.12L307.48,642a39.23,39.23,0,0,0-1.24,4.78h-.18a39.23,39.23,0,0,0-1.24-4.78l-9.65-28.43h6.11V608H282.5v5.58h5.05l2.57,6.82L281.71,642a30.37,30.37,0,0,0-1.42,4.78h-.18a39.23,39.23,0,0,0-1.24-4.78L269,613.59h5.49V608H255.76Z" transform="translate(0 0)" fill="#7c7c6a" fill-rule="evenodd"/>
    <path d="M330.8,632.1c0,13.11,8.24,22.67,22.14,22.67s22.14-10.63,22.14-25.15c0-13.11-8.24-22.67-22.14-22.67S330.8,617.57,330.8,632.1Zm7.61-1.24c0-9.92,4.79-17.89,14.53-17.89s14.52,8,14.52,17.89-4.78,17.89-14.52,17.89S338.41,640.78,338.41,630.86Z" transform="translate(0 0)" fill="#7c7c6a" fill-rule="evenodd"/>
    <path d="M385.21,648.13h-6.46v5.58h21.43v-5.58h-7.71l.36-17.09c.17-8.06,4.34-17.28,13.72-17.28a16,16,0,0,1,5,.72l.71-6.56c-.35-.35-4-.7-4.6-.7-11.34,0-13.73,8.32-15.5,15h-.27c.44-3.72,1-9.12,1-11.78V608H377.77v5.58h7.8Z" transform="translate(0 0)" fill="#7c7c6a" fill-rule="evenodd"/>
    <polygon points="420.34 648.13 413.79 648.13 413.79 653.71 433.63 653.71 433.63 648.13 427.61 648.13 427.79 630.33 446.29 647.95 446.29 648.13 440.81 648.13 440.81 653.71 460.64 653.71 460.64 648.13 455.68 648.13 435.05 629 454 613.59 458.69 613.59 458.69 608.01 438.86 608.01 438.86 613.59 445.23 613.59 445.23 613.76 427.79 628.11 427.96 585.6 411.84 585.6 411.84 591.18 420.7 591.18 420.34 648.13" fill="#7c7c6a" fill-rule="evenodd"/>
    <path d="M525,646.18c-4.25,1.33-7.88,2.57-12.4,2.57-17,0-17.36-15.41-17.36-17.89,0-7.44,2.66-17.89,15.86-17.89a28,28,0,0,1,7.61,1.06v7.18h6.56v-12a43.89,43.89,0,0,0-14.79-2.3c-10.19,0-22.85,6.46-22.85,23.91,0,11.95,5.75,23.91,23.82,23.91a46.17,46.17,0,0,0,13.2-2.21Z" transform="translate(0 0)" fill="#7c7c6a" fill-rule="evenodd"/>
    <path d="M528.59,632.1c0,13.11,8.23,22.67,22.14,22.67s22.14-10.63,22.14-25.15c0-13.11-8.24-22.67-22.14-22.67S528.59,617.57,528.59,632.1Zm7.61-1.24c0-9.92,4.78-17.89,14.53-17.89s14.52,8,14.52,17.89-4.78,17.89-14.52,17.89S536.2,640.78,536.2,630.86Z" transform="translate(0 0)" fill="#7c7c6a" fill-rule="evenodd"/>
    <path d="M575.65,653.71h19.84v-5.58h-6.64l.18-18.87c.09-12.39,7.17-16.29,13.1-16.29,8.51,0,9.92,6.38,9.92,13,0,7.35-.26,14.7-.35,22.14h-5.85v5.58h19.93v-5.58h-6.55l.17-18.87c.09-12.39,7.18-16.29,13.11-16.29,8.51,0,9.92,6.38,9.92,13,0,7.35-.27,14.7-.35,22.14h-5.85v5.58h19.84v-5.58h-6.73c0-7.09.35-16.21.35-24,0-8.68-3.1-17.18-15.67-17.18-11.78,0-14.62,8.77-15.5,10.71h-.18c-1.15-5.93-5.49-10.71-13.81-10.71-6.91,0-14.27,4.25-16.21,11.16h-.18l.71-4.61a48.72,48.72,0,0,0,.27-5.49H574.5v5.58h7.35l-.35,34.54h-5.85Z" transform="translate(0 0)" fill="#7c7c6a" fill-rule="evenodd"/>
    <path d="M662.54,653.71h19.83v-5.58h-6.64l.18-18.87C676,616.87,683.08,613,689,613c8.51,0,9.93,6.38,9.93,13,0,7.35-.27,14.7-.36,22.14h-5.85v5.58h19.93v-5.58h-6.55l.18-18.87c.08-12.39,7.17-16.29,13.1-16.29,8.5,0,9.92,6.38,9.92,13,0,7.35-.27,14.7-.35,22.14h-5.85v5.58H743v-5.58h-6.73c0-7.09.35-16.21.35-24,0-8.68-3.1-17.18-15.67-17.18-11.78,0-14.61,8.77-15.5,10.71h-.18c-1.15-5.93-5.49-10.71-13.81-10.71-6.91,0-14.26,4.25-16.21,11.16H675l.71-4.61A48.94,48.94,0,0,0,676,608H661.38v5.58h7.35l-.35,34.54h-5.84Z" transform="translate(0 0)" fill="#7c7c6a" fill-rule="evenodd"/>
    <path d="M742.93,613.59h7.35c-.08,7.08-.35,14.17-.35,22.49,0,10.37,3,18.69,16.12,18.69,7.79,0,13.46-5.75,15.41-11.16h.17l-.7,4.61a48.72,48.72,0,0,0-.27,5.49h13.55v-5.58h-6.38l.36-40.12H773.58v5.58h7.17v14.17c0,6.55-.18,21-13.46,21-8.86,0-10.1-7.09-10.1-13.73,0-10.45.35-18.69.35-27H742.93Z" transform="translate(0 0)" fill="#7c7c6a" fill-rule="evenodd"/>
    <path d="M831.44,653.71h19.84v-5.58h-6.73c0-7.09.36-16.21.36-24,0-8.68-3.1-17.18-15.68-17.18-6.91,0-14.26,4.25-16.21,11.16h-.17l.71-4.61a51.44,51.44,0,0,0,.26-5.49H799.21v5.58h7.35l-.36,34.54h-5.84v5.58H820.2v-5.58h-6.64l.17-18.87c0-12.39,7.09-16.29,13.56-16.29,10.18,0,10.36,8.86,10.36,13.28,0,7.35-.36,14.79-.36,21.88h-5.85Z" transform="translate(0 0)" fill="#7c7c6a" fill-rule="evenodd"/>
    <path d="M864.17,648.13h-7.26v5.58h21.78v-5.58h-7.26l.36-40.12H856.2v5.58h8.32Zm-2.39-57.75a5.49,5.49,0,1,0,5.49-5.48A5.52,5.52,0,0,0,861.78,590.38Z" transform="translate(0 0)" fill="#7c7c6a" fill-rule="evenodd"/>
    <path d="M881.56,613.59h7.26c-.09,6.64-.35,20.64-.35,26.21,0,5.85,0,15,12.75,15a25.93,25.93,0,0,0,10.28-2.13l.26-5.75a24.65,24.65,0,0,1-9,1.86c-7,0-7-5.67-7-12.22,0-7.62.18-15.32.36-22.94h14.43V608H896.17l.35-11.6-7.26.44L888.91,608h-7.35Z" transform="translate(0 0)" fill="#7c7c6a" fill-rule="evenodd"/>
    <path d="M913.29,613.59h5.4l16.74,42.16-1.51,3.72c-3.45,8.32-8.85,11.51-14.08,11.51a19.24,19.24,0,0,1-5.13-.8v6a17.2,17.2,0,0,0,5.4.8c11.51,0,16.74-6.91,23.2-24.89l14-38.52h5V608H944.11v5.58h6.46L940.39,642a39.23,39.23,0,0,0-1.24,4.78H939a37.46,37.46,0,0,0-1.24-4.78l-10.89-28.43h5.76V608H913.29Z" transform="translate(0 0)" fill="#7c7c6a" fill-rule="evenodd"/>
  </g>
  <path d="M717,369.7h3.8V343l8.92,26.75h3.71L742.65,343V369.7h3.8V339.89H740l-8.17,24.52-8-24.52H717Zm-14,0V343.44h8.67v-3.55H690.88v3.55h8.42V369.7Z" transform="translate(0 0)" fill="#99c159" fill-rule="evenodd"/>
  <path d="M501,231.16a43.73,43.73,0,0,0-15.71-32.94q-7.95-6.81-20.45-10.79-12.3-4.16-29.53-4.16-19.87,0-35.39,5.87a96,96,0,0,0-27.45,15.71,97.4,97.4,0,0,0-20.06,22.53,139.55,139.55,0,0,0-13.64,27.06A152.44,152.44,0,0,0,331,283a174.47,174.47,0,0,0-2.27,27.07q0,16.47,4.54,28.58a47.77,47.77,0,0,0,13.63,19.69,58.63,58.63,0,0,0,22.53,11.54q13.63,3.78,31.8,3.79a214.38,214.38,0,0,0,40.7-4.36,110.32,110.32,0,0,0,14.57-4.16q6.06-2.28,8.33-4.54a15.31,15.31,0,0,0,3.6-5.49,38.13,38.13,0,0,0,2.65-7.57,63.12,63.12,0,0,0,1.7-8.33,55.24,55.24,0,0,0,.57-7.39,7.35,7.35,0,0,0-.94-4.16,3.71,3.71,0,0,0-3.22-1.32q-2.28,0-7.2,1.89-4.92,1.69-12.49,4-7.39,2.08-17.42,4a131.35,131.35,0,0,1-22.33,1.7q-17.61,0-25.56-7.76t-7.95-23.09c0-2.4.13-5,.38-7.76s.63-5.81,1.14-8.71h17.41q27.63,0,47.51-4.16,20.07-4.17,32.94-11.93,13.06-8,19.12-18.74A48.92,48.92,0,0,0,501,231.16Zm-172.65,0a43.7,43.7,0,0,0-15.72-32.94q-8-6.81-20.44-10.79-12.32-4.16-29.53-4.16-19.87,0-35.4,5.87a95.92,95.92,0,0,0-27.44,15.71,97.67,97.67,0,0,0-20.07,22.53,139.51,139.51,0,0,0-13.63,27.06A151.68,151.68,0,0,0,158.34,283a174.47,174.47,0,0,0-2.27,27.07q0,16.47,4.54,28.58a47.68,47.68,0,0,0,13.63,19.69,58.55,58.55,0,0,0,22.53,11.54q13.62,3.78,31.8,3.79a176.48,176.48,0,0,0,21.58-1.33,175.68,175.68,0,0,0,19.12-3,110.32,110.32,0,0,0,14.57-4.16q6.06-2.28,8.33-4.54a15.31,15.31,0,0,0,3.6-5.49,39.44,39.44,0,0,0,2.65-7.57,66.52,66.52,0,0,0,1.7-8.33,55.24,55.24,0,0,0,.57-7.39,7.34,7.34,0,0,0-.95-4.16,3.68,3.68,0,0,0-3.21-1.32c-1.53,0-3.92.63-7.2,1.89s-7.45,2.46-12.49,4-10.73,2.72-17.42,4a131.43,131.43,0,0,1-22.33,1.7q-17.61,0-25.56-7.76t-7.95-23.09c0-2.4.13-5,.38-7.76s.63-5.81,1.14-8.71h17.41q27.63,0,47.51-4.16,20.07-4.17,32.94-11.93,13.07-8,19.12-18.74A48.92,48.92,0,0,0,328.33,231.16ZM1.6,311.14C-16.17,168.65,116,7.61,314.26.3c136.13-5,266.24,53.94,340.94,116.15l-17.62,87.26a51.78,51.78,0,0,0-7.77-8,46.32,46.32,0,0,0-10.22-6.43,50.69,50.69,0,0,0-12.3-4.36,56.37,56.37,0,0,0-14-1.7,74.41,74.41,0,0,0-30.09,5.87,83.17,83.17,0,0,0-23.67,15.71,101.47,101.47,0,0,0-17.6,22.71,161.46,161.46,0,0,0-12.31,26.88,168.64,168.64,0,0,0-7,28,164.17,164.17,0,0,0-2.27,26.31,125,125,0,0,0,.94,15.14,83.21,83.21,0,0,0,3.22,14.77,66.37,66.37,0,0,0,6.06,13.63A42.38,42.38,0,0,0,520,363.48a43.66,43.66,0,0,0,13.81,7.38,57.57,57.57,0,0,0,18.94,2.84A63.57,63.57,0,0,0,574,370.1a81.58,81.58,0,0,0,18.93-8.89,85.14,85.14,0,0,0,14.77-12.31A52.73,52.73,0,0,0,616.75,336l-5.11,27.07a6.72,6.72,0,0,0,.19,3.59,5.92,5.92,0,0,0,3,2.27,27.83,27.83,0,0,0,5.87,1.14q3.78.38,9.66.38c1.73,0,3.35,0,4.87-.09-57.69,62.8-141.07,123.23-238.35,151.74C224.39,572.7,63.2,482,11.84,363.09a1.57,1.57,0,0,1,1.39-2.1,1.49,1.49,0,0,1,1,.34c1.1.93,2.27,1.85,3.39,2.62,14.37,9.82,37.5,9.75,43.55,9.75q18.93,0,33.89-4.92a76.58,76.58,0,0,0,25.55-14,59,59,0,0,0,16.09-21,64.74,64.74,0,0,0,5.49-26.69q0-12.3-4.73-20.45a48.76,48.76,0,0,0-11.93-13.82A75.82,75.82,0,0,0,110,263.34q-8.34-3.78-15.52-7.19a66.86,66.86,0,0,1-12.12-7.57,12.35,12.35,0,0,1-4.73-9.85,21.25,21.25,0,0,1,1.71-8.51,19.58,19.58,0,0,1,5.3-6.82,24,24,0,0,1,8.51-4.73A38.75,38.75,0,0,1,105.08,217a56.27,56.27,0,0,1,14.76,1.71,63.52,63.52,0,0,1,11.17,4,79,79,0,0,1,8,4,13.68,13.68,0,0,0,5.87,1.7q2.26,0,4-3.22a39.64,39.64,0,0,0,3.21-7.95,58.43,58.43,0,0,0,1.89-8.89,45,45,0,0,0,.76-6.82c0-3-.7-5.17-2.08-6.43a20.27,20.27,0,0,0-6.44-4.17,66.28,66.28,0,0,0-10.41-3.79,89,89,0,0,0-13.44-2.65A101.63,101.63,0,0,0,107,183.27q-17.79,0-31.8,4.92a68.79,68.79,0,0,0-23.85,13.44,56.62,56.62,0,0,0-15,20.07,61.16,61.16,0,0,0-5.11,25q0,12.31,4.55,20.45a47.15,47.15,0,0,0,11.73,13.63A76.77,76.77,0,0,0,62.68,290Q71,293.83,78,297.41a52.88,52.88,0,0,1,11.54,7.76A13.71,13.71,0,0,1,94.29,316a21.26,21.26,0,0,1-1.9,8.9,19.08,19.08,0,0,1-5.48,7.38c-2.53,2.15-5.44,3.31-9.35,4.57a47,47,0,0,1-13.45,1.7,66.2,66.2,0,0,1-18.73-2.27,100.73,100.73,0,0,1-32.14-15.91C8.42,316.83,1.6,311.14,1.6,311.14Zm452.62-76.38a19.11,19.11,0,0,1-2.84,10,23.75,23.75,0,0,1-9.08,8,59.27,59.27,0,0,1-16.47,5.49,142.83,142.83,0,0,1-25.37,1.89h-15.9A87.92,87.92,0,0,1,391,243.46a55.35,55.35,0,0,1,9.84-13.62,43.34,43.34,0,0,1,13.06-9.28,41.12,41.12,0,0,1,17-3.41q11.35,0,17.23,5.11A15.45,15.45,0,0,1,454.22,234.76Zm-172.65,0a19.2,19.2,0,0,1-2.84,10,23.71,23.71,0,0,1-9.09,8,59.08,59.08,0,0,1-16.46,5.49,142.91,142.91,0,0,1-25.37,1.89h-15.9a87.92,87.92,0,0,1,6.44-16.66,55.09,55.09,0,0,1,9.84-13.62,43.21,43.21,0,0,1,13.06-9.28,41.09,41.09,0,0,1,17-3.41q11.35,0,17.22,5.11A15.43,15.43,0,0,1,281.57,234.76Zm347.87,10s-2.61,26.77-13.82,50.35A84.64,84.64,0,0,1,602.37,315a70.37,70.37,0,0,1-16.28,13.44,34.55,34.55,0,0,1-17,4.92q-10.23,0-14.95-7.19-4.74-7.4-4.73-21.77a118.65,118.65,0,0,1,1.32-17.23A154.44,154.44,0,0,1,554.47,269a122.33,122.33,0,0,1,6.44-17.23A67,67,0,0,1,570,237.41a42.61,42.61,0,0,1,11.74-9.85,28.51,28.51,0,0,1,14.38-3.78,32.67,32.67,0,0,1,18.55,5.3Q622.82,234.39,629.44,244.79Zm65.07-89.24c13.94,17.24,22.6,33.71,24.87,48,5.23,33-18.35,87-62.8,142.07Z" transform="translate(0 0)" fill="#99c159"/>
</svg>
