<svg xmlns="http://www.w3.org/2000/svg" viewBox="0 0 721.3 125.23">
  <title>spoke</title>
  <g>
    <path d="M50.46,124.24c25.81,0,43.93-13.33,43.93-37.08v-.34c0-20.86-13.68-29.58-37.95-35.9-20.68-5.3-25.8-7.86-25.8-15.72v-.34C30.64,29,35.93,24.43,46,24.43s20.51,4.44,31.11,11.79L90.8,16.4C78.66,6.65,63.79,1.18,46.36,1.18,21.92,1.18,4.48,15.54,4.48,37.25v.34C4.48,61.35,20,68,44.14,74.16c20,5.13,24.1,8.55,24.1,15.22v.34c0,7-6.5,11.28-17.27,11.28C37.3,101,26,95.36,15.25,86.47L-.3,105.1a76.14,76.14,0,0,0,50.76,19.14Z" transform="translate(0.3 0.48)" fill="#4c4747"/>
    <path d="M139,121.67h26.06V86.13h19.8c26.57,0,47.89-14.22,47.89-41.63v-.34c0-24.2-17.09-40.95-45.35-40.95H139V121.67Zm26.06-58.73V26.73h20.14c13,0,21.15,6.26,21.15,17.94V45c0,10.15-7.61,17.93-20.64,17.93Z" transform="translate(0.3 0.48)" fill="#4c4747" fill-rule="evenodd"/>
    <polygon points="432.78 122.14 458.85 122.14 458.85 85.93 472.55 71.71 509.27 122.14 540.58 122.14 490.15 53.95 538.37 3.69 506.9 3.69 458.85 55.47 458.85 3.69 432.78 3.69 432.78 122.14 432.78 122.14" fill="#4c4747"/>
    <polygon points="577.02 122.14 664.3 122.14 664.3 98.96 602.91 98.96 602.91 74.08 658.76 74.08 658.76 50.9 602.91 50.9 602.91 26.87 663.45 26.87 663.45 3.69 577.02 3.69 577.02 122.14 577.02 122.14" fill="#4c4747"/>
    <path d="M367,63.16v-.93l25.27,6.69a62.62,62.62,0,0,1-124.5,0L293,62.21l-25.27-6.84a62.62,62.62,0,0,1,124.5,0L367,62a37,37,0,0,0-74,0v1.1a37,37,0,1,0,74,0Z" transform="translate(0.3 0.48)" fill="#e84524"/>
    <polygon points="698.12 98.92 721.3 98.92 721.3 122.11 698.12 122.11 698.12 98.92 698.12 98.92" fill="#4c4747"/>
  </g>
</svg>
