<?xml version="1.0" encoding="utf-8"?>
<!-- Generator: Adobe Illustrator 19.2.1, SVG Export Plug-In . SVG Version: 6.00 Build 0)  -->
<svg version="1.1" id="Layer_1" xmlns="http://www.w3.org/2000/svg" xmlns:xlink="http://www.w3.org/1999/xlink" x="0px" y="0px"
	 viewBox="0 0 35.3 24" style="enable-background:new 0 0 35.3 24;" xml:space="preserve">
<style type="text/css">
	.st0{fill:rgba(255,255,255,0.1);}
	.st1{display:inline;fill:#FFFFFF;}
	.st2{fill:#FFFFFF;}
	.st3{fill:#E0393D;}
</style>
    
<g class="st0">
	<path class="st1" filter="url(#shadow)" d="M32.4,1H3.2C1.8,1,1,1.8,1,2.8v18.3c0,1,0.8,1.8,2.2,1.8h29.3c1,0,1.8-0.8,1.8-1.8V2.8C34.3,1.8,33.5,1,32.4,1
		z"/>
	<path class="st2" d="M32.4,1c1,0,1.8,0.8,1.8,1.8v18.3c0,1-0.8,1.8-1.8,1.8H3.2C1.8,23,1,22.2,1,21.2V2.8C1,1.8,1.8,1,3.2,1H32.4
		 M32.4,0H3.2C1.3,0,0,1.2,0,2.8v18.3C0,22.8,1.3,24,3.2,24h29.3c1.6,0,2.8-1.2,2.8-2.8V2.8C35.3,1.2,34,0,32.4,0L32.4,0z"/>
</g>
<g id="Layer_2">
	<rect x="3" y="8" class="st2" width="29.3" height="12"/>
</g>
<path d="M26.8,19c0,0-0.1,0-0.1,0c0,0-0.1,0-0.1,0c0,0,0,0-0.1-0.1c0,0-0.1-0.1-0.1-0.1s0,0.1,0,0c0-0.1,0-0.2,0-0.2s0,0,0,0
	c-0.1,0-0.1-0.1-0.1-0.4c0,0-0.1-0.3-0.1-0.5c0-0.2-0.1-0.6-0.1-0.8c0-0.7,0-0.7-0.2-0.8c-0.1,0-0.1-0.1-0.2-0.2
	c-0.1-0.1-0.1-0.1-0.1-0.2c0-0.1,0-0.2,0-0.2c0,0,0.2-0.1,0.3-0.1c0.1,0,0.1,0,0.1-0.2c0-0.1,0-0.2,0.1-0.4c0-0.2,0.1-0.5,0.1-0.6
	c0-0.2,0.1-0.4,0.1-0.4c0-0.2,0.1-0.5,0.1-0.5c0,0,0-0.1,0-0.1c0-0.2,0.3-0.9,0.6-1.2c0.1-0.1,0.2-0.3,0.3-0.3
	c0.1-0.1,0.2-0.1,0.2-0.2c0-0.1,0.1-0.1,0.2-0.2c0.1,0,0.2-0.1,0.2-0.1c0,0,0.1,0,0.2-0.1c0.2,0,0.2,0,0.3,0c0.1,0,0.2,0,0.2,0
	c0,0,0.1,0,0.1,0c0,0,0.1,0.1,0.2,0.1c0.1,0,0.3,0.1,0.3,0.1c0.1,0,0.1,0.1,0.2,0.1c0.2,0.1,0.4,0.3,0.6,0.8c0.1,0.3,0.1,1,0,1.4
	c-0.1,0.6-0.3,0.9-0.9,1.5c-0.7,0.7-1.3,1.1-1.7,1.2c-0.1,0-0.2,0-0.2,0c0,0.1,0,1.2,0,1.5c0,0.4,0.2,0.9,0.2,0.9
	c0,0,0.1,0.1,0.1,0.2c0,0-0.4,0-0.4,0c0,0,0,0-0.1,0c0,0.1,0,0.1-0.1,0c0,0,0,0-0.1,0c0,0-0.1,0-0.1,0C27,19,26.9,19,26.8,19
	C26.9,19.1,26.9,19.1,26.8,19z"/>
<path class="st2" d="M27.6,15.2c0,0,0.1-0.1,0.1-0.1c0.2-0.1,0.8-0.7,0.9-0.9c0.2-0.4,0.3-0.7,0.4-1.1c0-0.3-0.1-1-0.1-1
	c0,0-0.4,0.4-0.5,0.6c-0.3,0.5-0.5,1-0.7,1.7c0,0.2-0.1,0.3-0.1,0.4s0,0.1,0,0.3c0,0.1-0.1,0.3-0.1,0.3
	C27.4,15.3,27.4,15.3,27.6,15.2C27.5,15.3,27.6,15.3,27.6,15.2z"/>
<path d="M19.7,17.1c0,0,0-0.1-0.1-0.4c0-0.3,0-0.5,0-0.5c0,0,0-0.3,0-0.6c0-0.3,0-0.6-0.1-0.6c0,0,0-0.1,0-0.2c0-0.1,0-0.3,0-0.4
	c0,0-0.2,0-0.5-0.1c-0.5,0-0.5,0-0.6-0.1c-0.1-0.1-0.1-0.2-0.1-0.4c0-0.1,0.2-0.3,0.3-0.3c0,0,0.2,0,0.4,0l0.4,0v-0.1
	c0-0.1,0-0.1,0-0.2c0-0.1,0-0.4-0.1-0.5c0-0.1,0-0.3-0.1-0.5c0-0.2-0.1-0.5-0.1-0.7c0-0.2-0.1-0.5-0.1-0.8c0-0.5,0-1.6,0-1.8
	c0.1-0.2,0.1-0.2,0.4-0.2c0.2,0,0.3,0,0.5,0.1c0.6,0.3,0.6,0.3,0.5,0.8c-0.1,0.3-0.1,1.1,0,1.6c0,0.2,0,0.5,0,0.7
	c0,0.7,0.1,0.8,0.1,0.9c0,0.1,0,0.2,0,0.2l0,0c0-0.1,0,0,0,0c0,0.2,0,0.2,0,0.2l0.1,0.1l0-0.1c0-0.1,0,0.1,0,0.1c0-0.1,0.1,0,0.1,0
	c0.1,0,0.2,0,0.2,0.1c0,0,0.1,0.1,0.1,0c0,0,0.1,0,0.1,0.1c0,0,0.1,0.1,0.1,0.1c0,0,0,0,0,0c0,0,0.3,0.2,0.4,0.3c0,0,0.1,0.1,0,0.1
	c0,0,0,0,0,0.1c0.1,0.1,0,0.1-0.1,0.1c-0.1,0-0.1,0-0.1,0s-0.1,0-0.1,0c0,0-0.1,0-0.1,0.1c0,0-0.1,0.1-0.1,0c0,0,0,0,0,0
	c0,0-0.2,0-0.4,0c-0.2,0-0.4-0.1-0.5-0.1c0,0,0,0.1,0,0.1c0,0,0,0.1,0,0.1c0,0.1,0,0.1,0,0.1c0,0,0,0.1,0,0.1c0,0.1,0,0.1,0,0
	c0,0,0,0.1,0,0.4c0,0.2,0,0.6,0,0.9c0,0.3,0,0.4,0,0.4c0,0.1,0,0.1,0,0.1c0,0-0.1,0-0.1,0C20.3,17,20.2,17,20.1,17
	c-0.1,0-0.2,0-0.2,0.1c0,0,0,0,0,0C19.8,17.1,19.8,17.1,19.7,17.1C19.8,17.1,19.8,17.1,19.7,17.1z"/>
<path d="M10.5,16.7c0,0-0.1-0.2-0.1-0.4c-0.1-0.3-0.2-0.5-0.2-0.6c0,0-0.2-0.7-0.2-0.7c0,0-0.1-0.2-0.1-0.4
	c-0.1-0.2-0.1-0.5-0.2-0.5c0-0.1-0.1-0.3-0.2-0.9c-0.1-0.5-0.1-0.3-0.2,1.5c0,1-0.1,1.1-0.2,1.4c0,0.1-0.1,0.1-0.2,0.1
	c-0.2,0-0.3,0-0.6,0.1c-0.3,0-0.4,0-0.5,0c-0.1-0.1-0.4-0.6-1.1-1.6c-0.1-0.1-0.1-0.1,0,0.6C6.8,16,6.8,16,6.6,16.1
	c-0.2,0.1-0.8,0.3-0.9,0.2c-0.2,0-0.3-0.2-0.3-0.5c0-0.2-0.1-1.1-0.1-1.2c0-0.1,0-1.9,0-2.7v-0.1l0.1-0.1c0.1,0,0.2-0.1,0.3-0.1
	c0.1,0,0.3-0.1,0.5-0.1c0.4,0,0.4,0,0.5,0.1c0.1,0.1,0.4,0.5,0.8,1.3c0.5,1,0.5,1,0.5,0.9c0,0,0-0.1,0-0.1c0-0.3,0.1-0.6,0.1-0.8
	c0.2-0.7,0.3-1.1,0.3-1.2c0,0,0-0.1,0-0.1c0,0,0.2-0.7,0.4-1c0.1-0.2,0.1-0.2,0.6-0.2c0.7,0,0.7,0,0.9,0.3c0.1,0.1,0.3,0.7,0.3,0.9
	c0,0,0,0.2,0.1,0.3c0.1,0.3,0.2,0.7,0.3,1.1c0,0.1,0.1,0.3,0.1,0.5c0,0.2,0.1,0.4,0.1,0.5c0,0.2,0,0.3,0.2,0.7
	c0.1,0.4,0.2,0.6,0.1,0.7c0,0,0,0.1,0,0c0,0,0,0,0,0c0,0.1,0,0.2,0.1,0.2c0,0,0,0,0,0c0,0,0,0.1,0,0.1c0.1,0.1,0.2,0.5,0.2,0.6
	s-0.1,0-0.2-0.1c0,0,0,0,0,0.1c0,0.1,0,0.1-0.1,0.1c0,0,0,0,0,0s0,0.1-0.1,0.1c-0.1,0-0.1,0-0.1,0s0,0,0,0c0,0-0.1,0-0.1,0
	c0,0-0.1,0-0.1,0c0,0-0.1,0-0.1,0c-0.1,0-0.1,0-0.2,0C10.6,16.7,10.5,16.7,10.5,16.7z"/>
<path d="M13.2,16.9c-0.4-0.1-0.8-0.2-0.9-0.3c0,0,0,0-0.1,0c0,0,0,0,0,0c0,0-0.1-0.1-0.2-0.1c-0.1,0-0.3-0.3-0.4-0.5
	c-0.2-0.2-0.2-0.4-0.2-1.3c0-0.5,0-0.9,0-0.9c0,0,0-0.2,0.1-0.4c0-0.2,0-0.4,0.1-0.4c0-0.1,0.1-0.1,0.1-0.1c0-0.1,0.2-0.5,0.2-0.6
	c0-0.1,0.1-0.1,0.1-0.2c0,0,0.1-0.1,0.2-0.2c0.1-0.1,0.3-0.3,0.6-0.5c0.1-0.1,0.1-0.1,0.1-0.1c0,0,0.1-0.1,0.1-0.1
	c0.1-0.1,0.2,0,0.6,0c0.1,0,0.2,0,0.3,0c0.1,0,0.1,0,0.1,0c-0.1,0,0,0.1,0.2,0.1c0.1,0,0.2,0.1,0.3,0.1c0.1,0.1,0.2,0.5,0.3,1.5
	c0,0.6,0,0.8,0,1c0,0.1,0,0.2-0.1,0.3c0,0.3,0,0.3-0.3,0.3c-0.3,0-1,0-1.3-0.1c-0.1,0-0.2,0-0.3,0c0,0,0,0.1,0,0.3
	c-0.1,0.6,0.1,1.1,0.4,1.4c0.2,0.2,0.3,0.2,0.4,0.2c0.3,0,0.5-0.1,0.6-0.2l0.1-0.1l0.2,0.1c0.1,0,0.2,0.1,0.3,0.1c0,0,0.1,0,0.1,0
	c0,0,0,0,0.1,0c0.1,0,0.2,0,0.2,0.1c0,0,0,0,0,0c0,0,0.1,0,0.1,0.1l0.1,0.1l-0.3,0.1c-0.1,0.1-0.3,0.1-0.3,0.1c0,0-0.2,0-0.3,0.1
	c-0.1,0-0.3,0-0.4,0.1C13.9,16.9,13.5,16.9,13.2,16.9z"/>
<path class="st2" d="M13.8,13c0-0.3,0-0.6,0-0.6c0-0.1-0.2,0-0.3,0.1c-0.1,0.2-0.3,0.5-0.3,0.9c-0.1,0.3-0.1,0.3,0.4,0.3
	C13.6,13.8,13.8,13.6,13.8,13z"/>
<path d="M17.3,17.1c0,0,0,0-0.2,0c-0.1,0-0.3,0-0.5-0.1c-0.2,0-0.3-0.2-0.4-0.2c-0.1,0-0.1,0-0.1-0.1c0,0,0,0,0,0c0,0-0.1,0-0.3-0.1
	c-0.2-0.1-0.4-0.6-0.5-0.9c0,0-0.1-0.1-0.2-0.2c-0.2-0.2-0.2-0.3-0.2-0.8c0-0.2,0-0.4,0-0.5c0,0,0-0.4,0-0.4c0,0,0.1-0.3,0.2-0.7
	c0-0.1,0.1-0.4,0.2-0.5c0.1-0.1,0.1-0.3,0.1-0.3c0-0.1,0.3-0.8,0.4-0.8c0,0,0.1-0.1,0.1-0.1c0.1-0.2,0.3-0.2,0.3-0.2
	c0,0,0.2-0.1,0.3-0.1c0.1,0,0.5,0,0.6,0.1c0,0,0.1,0.1,0.1,0.1c0,0,0.2,0,0.2,0.1c0.1,0.1,0.2,0.1,0.2,0.1c0.1,0,0.2,0.1,0.3,0.2
	c0.1,0.1,0.1,0.1,0,0.5c0,0.2,0,0.2,0,0.2c0,0,0,0.1,0,0.2c0,0.2,0,0.3,0,0.3c0,0,0,0,0,0.1s0,0.1,0,0.2c0,0,0,0.1,0,0.1
	c-0.1,0.1-0.1,1.6-0.1,1.6c0,0,0,0,0,0c0,0,0,0.1-0.1,0.1c0,0-0.1,0-0.2,0c0,0-0.1,0-0.1,0c0,0-0.1,0-0.2,0.1
	c-0.1,0.1-0.4-0.1-0.6-0.2c-0.1,0-0.2,0-0.2-0.1c-0.1,0-0.2,0-0.3,0c-0.1,0-0.2,0-0.2,0c0,0,0,0.1,0,0.2c0,0.4,0.2,1.1,0.5,1.4
	c0.3,0.2,0.5,0.3,1,0.1c0.3-0.1,0.4-0.1,0.4-0.2c0-0.1,0.1-0.2,0.2-0.2c0.3,0.1,0.3,0.2,0.3,0.3c0,0,0,0.1,0,0.1c0,0,0,0,0,0.1
	c-0.2,0.1-0.1,0.2-0.3,0.3c-0.1,0-0.2,0.1-0.2,0.1C18.1,17,17.6,17.1,17.3,17.1C17.3,17.1,17.3,17.1,17.3,17.1z"/>
<path class="st2" d="M17.1,13.7c0.1-0.1,0.1-0.8,0.1-1.2L17,12.4l-0.1,0c-0.1,0.3-0.5,1.3-0.5,1.5c0,0.1,0.1,0.1,0.4,0.1
	C16.8,13.9,16.9,13.8,17.1,13.7C17,13.8,17,13.8,17.1,13.7z"/>
<path d="M23.2,16.8c-0.3-0.1-0.4-0.2-0.6-0.7c-0.2-0.5-0.4-1.8-0.4-2.8c0-0.5,0.2-0.6,0.7-0.3c0.1,0.1,0.3,0.1,0.3,0.1
	c0,0,0.1,0,0.1,0.1c0,0,0.1,0.1,0.1,0.1c0.1,0,0.1,0.1,0.1,0.9c0,0.5,0,0.8,0,0.8c0,0,0,0.1,0,0.3c0,0.1,0,0.3,0,0.4
	c0,0.1,0,0.1,0,0.1c0,0,0,0,0,0.1c0,0.1,0,0.2,0.1,0.3l0,0.1l0.1-0.1c0.2-0.2,0.5-0.6,0.6-0.8c0.1-0.3,0.2-0.6,0.2-1.1
	c0-0.4,0-0.5,0-0.6c-0.1-0.1-0.1-0.1,0-0.3c0.1-0.2,0.2-0.3,0.3-0.3c0,0,0.2,0.1,0.3,0.1c0.1,0.1,0.3,0.1,0.3,0.1s0,0,0.1,0.1
	c0,0,0,0.1,0.1,0.1c0.1,0,0.1,0,0.1,0c0,0,0.1,0.1,0.1,0.1c0.1,0,0.1,0.5,0,1.2c0,0.3-0.1,0.3-0.1,0.3c0,0,0,0,0,0
	c0,0.1-0.1,0.3-0.1,0.2c0,0,0,0,0,0c0,0-0.1,0.1-0.1,0.1c0,0,0,0,0,0c0,0,0-0.1,0-0.1c0,0-0.1,0.1-0.1,0.2c-0.1,0.2-0.3,0.6-0.4,0.7
	c0,0-0.1,0.1-0.1,0.1c-0.1,0.1-0.1,0.1-0.1,0c0-0.1,0-0.1,0-0.1c0,0-0.1,0-0.1,0.1c0,0,0,0.1,0,0.1c0,0-0.1,0.1-0.1,0.1
	c0,0,0,0.1-0.1,0.1c0,0,0,0.1,0,0.1c0,0,0,0-0.1,0.1c-0.1,0.1-0.4,0.1-0.7,0.2c-0.2,0-0.3,0-0.4,0C23.4,16.8,23.3,16.8,23.2,16.8z"
	/>
<path d="M24.6,16.5C24.7,16.5,24.6,16.5,24.6,16.5C24.6,16.5,24.6,16.5,24.6,16.5C24.6,16.5,24.6,16.5,24.6,16.5z"/>
<path d="M16.4,17C16.4,17,16.4,17,16.4,17C16.5,17,16.5,17,16.4,17C16.4,17,16.4,17,16.4,17z"/>
<path d="M18.1,13.2C18.1,13.2,18.1,13.2,18.1,13.2C18.1,13.2,18.1,13.3,18.1,13.2C18.1,13.3,18.1,13.3,18.1,13.2z"/>
<path class="st3" d="M32.4,1H3.2C1.8,1,1,1.8,1,2.8v18.3c0,1,0.8,1.8,2.2,1.8h29.3c1,0,1.8-0.8,1.8-1.8V2.8C34.3,1.8,33.5,1,32.4,1z
	 M32.3,20H3V8h29.3V20z"/>
</svg>
