<svg id="Layer_1" data-name="Layer 1" xmlns="http://www.w3.org/2000/svg" viewBox="0 0 500 155.43">
  <title>twp-logo</title>
  <path d="M92.95,20.19L0,61.55v22.2l92.95,41.37,92.95-41.37V61.55Zm0,73.63L39.74,72.73l53.2-21.24,53.18,21.24Z" style="fill: #f7941e"/>
  <path d="M459.45,25.2a36.72,36.72,0,0,0-23.3,8.57c-0.42-5.16-3.61-8.2-11.24-8.2H396c-8.22,0-11.51,2-13.9,9.93l-18.46,59.3L340.77,25.93H324.51L301.64,94.79,283,35.5c-2.37-7.91-5.48-9.93-13.71-9.93H236.46V0H219.08V25.57H206.65V40.83h12.07V84.61c0,31.09,23.59,34.76,35.3,34.76a45.79,45.79,0,0,0,6.21-.36V103.18a20.76,20.76,0,0,1-4.21.38c-6.77,0-19.57-2.4-19.57-21V40.83h24.21c2.94,0,4.76.73,5.67,3.69l24.33,74.13h20.12l21.85-67.19,21.86,67.19h19.92l24.33-74.12c0.91-3,2.74-3.69,5.66-3.69h10.06c2.55,0,4,1.29,4,4V155.43h17.74V110.52A36.71,36.71,0,0,0,459.45,119c22.4,0,40.55-21,40.55-46.9S481.85,25.2,459.45,25.2Zm0,76.09c-12.64,0-24-13.09-24-29.18s11.31-29.18,24-29.18S482.38,56,482.38,72.11,472.1,101.29,459.45,101.29Z" style="fill: #403438"/>
  <g>
    <polygon points="0 83.75 92.94 125.12 92.94 93.82 39.74 72.73 92.94 51.49 92.94 20.19 0 61.55 0 83.75" style="fill: #e7801d"/>
    <polygon points="92.94 20.19 92.94 51.49 146.13 72.73 92.94 93.82 92.94 125.12 185.89 83.75 185.89 61.55 92.94 20.19" style="fill: #f7941e"/>
  </g>
</svg>
